if (_typeface_js && _typeface_js.loadFace) _typeface_js.loadFace({"glyphs":{"S":{"x_min":55.5625,"x_max":726.453125,"ha":678,"o":"m 580 700 q 622 816 622 762 q 591 902 622 870 q 511 934 561 934 q 430 910 461 934 q 400 834 400 886 q 472 647 400 782 q 563 473 544 512 q 616 269 616 368 q 527 68 616 145 q 315 -8 437 -8 q 125 67 194 -8 q 55 244 55 143 q 287 554 55 431 q 193 813 193 740 q 275 988 193 916 q 478 1059 358 1059 q 662 998 598 1059 q 726 843 726 937 q 684 700 726 780 l 580 700 m 216 158 q 307 118 254 118 q 391 149 361 118 q 420 241 420 180 q 377 377 420 297 q 356 418 372 388 q 334 461 341 448 q 179 258 179 380 q 216 158 179 195 "},"¦":{"x_min":26.390625,"x_max":276.40625,"ha":306,"o":"m 161 1057 l 276 1057 l 219 548 l 104 548 l 161 1057 m 87 398 l 202 398 l 141 -137 l 26 -137 l 87 398 "},"/":{"x_min":27.78125,"x_max":501.421875,"ha":529,"o":"m 386 1057 l 501 1057 l 143 -138 l 27 -138 l 386 1057 "},"y":{"x_min":27.78125,"x_max":779.234375,"ha":675,"o":"m 284 -412 q 148 -364 205 -412 q 91 -225 91 -316 q 205 -5 91 -112 q 76 47 125 1 q 27 176 27 93 q 37 293 27 215 q 58 461 47 370 q 81 652 69 551 q 161 668 125 668 q 215 665 197 668 q 250 644 233 662 q 266 593 266 626 l 220 238 q 218 208 218 216 q 293 126 218 126 q 404 190 361 126 q 425 374 408 222 q 452 611 441 526 q 504 652 465 637 q 569 668 544 668 q 650 657 613 668 l 584 144 q 779 -79 747 115 q 726 -162 773 -105 q 573 48 698 11 l 551 -125 q 472 -331 536 -250 q 284 -412 408 -412 m 200 -198 q 222 -266 200 -244 q 281 -288 244 -288 q 337 -258 318 -288 q 368 -136 356 -227 l 386 16 q 200 -198 204 -77 "},"≈":{"x_min":75,"x_max":755.609375,"ha":833,"o":"m 248 682 q 291 676 261 682 q 434 619 322 670 q 583 568 547 568 q 694 666 655 568 l 755 666 q 686 488 741 545 q 561 431 630 431 q 380 486 491 431 q 233 540 266 540 q 170 522 200 540 q 136 462 140 505 l 75 462 q 134 627 80 572 q 248 682 188 682 m 248 411 q 291 405 261 411 q 434 348 322 400 q 583 297 547 297 q 694 395 655 297 l 755 395 q 686 218 741 275 q 561 161 630 161 q 380 213 491 161 q 233 269 266 269 q 170 252 200 269 q 136 191 140 234 l 75 191 q 134 356 80 301 q 248 411 188 411 "},"Ž":{"x_min":26.390625,"x_max":819.515625,"ha":743,"o":"m 241 1361 l 352 1361 l 473 1245 l 594 1361 l 705 1361 l 540 1141 l 393 1141 l 241 1361 m 632 336 q 768 291 718 337 q 819 176 819 245 q 766 53 819 106 q 607 0 713 0 l 40 0 q 26 73 26 34 q 55 151 26 112 l 537 891 l 490 891 q 383 769 452 818 q 228 720 313 720 q 92 765 143 719 q 41 880 41 811 q 94 1003 41 950 q 254 1057 147 1057 l 807 1057 q 813 1009 813 1033 q 787 930 813 966 l 291 165 l 370 165 q 477 287 408 238 q 632 336 547 336 m 252 891 q 162 848 162 891 q 247 805 162 805 q 393 891 331 805 l 252 891 m 608 165 q 698 208 698 165 q 613 251 698 251 q 468 165 529 251 l 608 165 "},"Á":{"x_min":47.21875,"x_max":1161.203125,"ha":992,"o":"m 597 1152 l 773 1412 q 838 1359 801 1398 q 900 1286 876 1319 l 650 1101 q 597 1152 633 1111 m 844 -2 q 727 47 766 -2 q 673 237 687 98 q 657 425 665 309 q 461 363 559 395 l 413 233 q 394 179 400 195 q 374 131 388 163 q 349 85 359 100 q 320 48 338 70 q 281 16 301 26 q 175 -8 231 -8 q 82 32 118 -8 q 47 133 47 73 q 50 168 47 150 q 323 411 68 301 q 563 1033 395 595 q 676 1058 608 1058 q 705 1058 691 1058 q 739 1058 719 1058 q 790 1050 759 1058 q 854 240 791 984 q 869 159 859 177 q 902 140 879 140 q 1006 193 941 140 q 1122 325 1070 245 l 1161 230 l 1127 186 q 844 -2 982 -2 m 623 816 l 502 479 q 647 527 600 512 l 623 816 m 275 290 q 145 162 145 225 q 179 118 145 118 q 219 154 204 118 q 275 290 237 193 "},"g":{"x_min":41.671875,"x_max":870.90625,"ha":739,"o":"m 419 668 q 559 643 495 668 q 650 669 602 669 q 725 657 697 669 l 675 265 q 830 409 777 344 l 870 325 q 659 147 791 241 l 622 -143 q 536 -343 607 -273 q 355 -413 466 -413 q 230 -372 291 -413 q 166 -229 166 -327 q 281 -8 166 -108 q 112 73 183 -1 q 41 269 41 148 q 148 559 41 451 q 419 668 255 668 m 440 559 q 299 492 351 559 q 237 291 247 425 q 236 268 236 279 q 268 159 236 200 q 352 119 301 119 q 484 241 440 119 l 519 543 q 440 559 476 559 m 273 -208 q 295 -267 273 -245 q 344 -288 316 -288 q 434 -190 422 -288 l 458 18 q 273 -208 273 -91 "},"²":{"x_min":34.71875,"x_max":440.3125,"ha":496,"o":"m 79 813 l 79 833 q 131 938 80 904 q 255 972 183 972 q 379 934 327 972 q 430 822 430 895 q 388 711 430 763 q 341 657 361 676 l 319 634 q 208 543 268 583 q 324 526 294 526 q 368 544 354 526 q 394 602 383 562 l 437 602 q 440 563 440 575 q 319 430 430 430 q 219 443 280 430 q 127 455 158 455 q 62 430 95 455 l 34 495 q 100 556 45 511 q 167 613 154 601 q 202 645 180 625 q 232 673 223 665 q 259 702 241 682 q 286 737 277 722 q 312 827 312 787 q 292 886 312 866 q 244 907 272 905 q 173 840 176 902 q 176 813 173 827 l 79 813 "},"–":{"x_min":125.015625,"x_max":708.390625,"ha":833,"o":"m 138 554 l 708 554 l 693 434 l 125 434 l 138 554 "},"ë":{"x_min":36.109375,"x_max":807.015625,"ha":647,"o":"m 140 838 q 168 910 140 880 q 238 940 197 940 q 309 910 280 940 q 338 838 338 880 q 309 768 338 797 q 238 738 280 738 q 168 768 197 738 q 140 838 140 797 m 502 910 q 573 940 531 940 q 644 910 615 940 q 673 838 673 880 q 645 768 673 797 q 574 738 616 738 q 502 768 531 738 q 472 838 472 797 q 502 910 472 880 m 304 311 q 432 380 390 329 q 475 479 475 431 q 449 545 475 527 q 393 562 423 562 q 278 489 327 562 q 229 316 229 416 q 277 165 229 215 q 395 116 325 116 q 595 188 500 116 q 751 377 691 261 q 807 305 782 348 q 644 101 761 201 q 506 22 586 52 q 341 -8 426 -8 q 122 76 202 -8 q 36 311 36 168 q 143 561 36 454 q 401 668 251 668 q 575 621 508 668 q 643 495 641 575 q 557 322 643 388 q 323 229 472 255 l 304 311 "},"ƒ":{"x_min":113.890625,"x_max":801.453125,"ha":833,"o":"m 695 829 q 675 905 695 877 q 602 936 650 936 q 531 899 555 936 q 501 795 508 862 l 479 615 l 732 615 l 713 504 l 466 504 l 359 -380 l 170 -380 q 279 504 183 -298 l 113 504 l 130 615 l 293 615 l 318 825 q 593 1057 347 1057 q 745 999 688 1057 q 801 847 801 941 q 797 787 801 819 l 693 787 q 695 829 695 818 "},"Î":{"x_min":56.953125,"x_max":773.671875,"ha":671,"o":"m 477 1361 l 719 1193 q 673 1112 690 1138 l 477 1213 l 281 1112 q 236 1193 265 1138 l 477 1361 m 772 900 q 728 909 750 909 q 686 883 707 909 q 659 807 666 857 l 587 291 q 491 70 568 151 q 298 -9 413 -9 q 120 54 183 -9 q 56 209 56 119 q 118 361 56 298 q 275 423 180 423 q 366 415 333 423 l 359 330 q 286 336 336 336 q 199 302 237 336 q 161 219 161 269 q 188 142 161 169 q 255 115 216 115 q 391 287 372 115 q 445 752 429 632 q 298 723 362 723 q 143 770 197 723 q 90 894 90 818 q 145 1014 90 970 q 283 1058 200 1058 q 431 1026 334 1058 q 580 994 527 994 q 738 1043 675 994 q 773 927 773 994 q 772 900 773 913 m 227 857 q 250 820 227 836 q 320 805 273 805 q 441 847 366 805 q 330 875 387 859 q 262 891 273 891 q 227 857 227 891 "},"e":{"x_min":36.109375,"x_max":807.015625,"ha":647,"o":"m 304 311 q 432 380 390 329 q 475 479 475 431 q 449 545 475 527 q 393 562 423 562 q 278 489 327 562 q 229 316 229 416 q 277 165 229 215 q 395 116 325 116 q 595 188 500 116 q 751 377 691 261 q 807 305 782 348 q 644 101 761 201 q 506 22 586 52 q 341 -8 426 -8 q 122 76 202 -8 q 36 311 36 168 q 143 561 36 454 q 401 668 251 668 q 575 621 508 668 q 643 495 641 575 q 557 322 643 388 q 323 229 472 255 l 304 311 "},"Ã":{"x_min":47.21875,"x_max":1161.203125,"ha":992,"o":"m 597 1359 q 734 1311 658 1359 q 843 1262 811 1262 q 945 1357 907 1262 l 1007 1322 q 946 1174 994 1232 q 833 1116 898 1116 q 694 1168 768 1116 q 588 1220 619 1220 q 536 1203 558 1220 q 491 1138 513 1186 l 430 1175 q 493 1307 448 1255 q 597 1359 537 1359 m 844 -2 q 727 47 766 -2 q 673 237 687 98 q 657 425 665 309 q 461 363 559 395 l 413 233 q 394 179 400 195 q 374 131 388 163 q 349 85 359 100 q 320 48 338 70 q 281 16 301 26 q 175 -8 231 -8 q 82 32 118 -8 q 47 133 47 73 q 50 168 47 150 q 323 411 68 301 q 563 1033 395 595 q 676 1058 608 1058 q 705 1058 691 1058 q 739 1058 719 1058 q 790 1050 759 1058 q 854 240 791 984 q 869 159 859 177 q 902 140 879 140 q 1006 193 941 140 q 1122 325 1070 245 l 1161 230 l 1127 186 q 844 -2 982 -2 m 623 816 l 502 479 q 647 527 600 512 l 623 816 m 145 162 q 179 118 145 118 q 219 154 204 118 q 275 290 237 193 q 145 162 145 225 "},"J":{"x_min":1.390625,"x_max":805.625,"ha":581,"o":"m 711 897 q 668 907 688 907 q 626 880 647 907 q 598 804 605 854 l 529 318 q 752 431 704 394 l 805 340 q 705 283 763 308 q 593 236 647 258 q 512 204 538 215 l 466 -120 q 371 -317 448 -254 q 202 -380 294 -380 q 55 -313 109 -380 q 1 -162 1 -245 q 320 225 1 55 l 334 337 q 388 752 361 576 q 222 720 309 720 q 82 768 136 720 q 29 891 29 815 q 84 1011 29 968 q 222 1055 138 1055 q 370 1023 273 1055 q 519 991 466 991 q 677 1040 613 991 q 712 925 712 991 q 711 897 712 911 m 166 854 q 189 818 166 833 q 259 802 212 802 q 380 844 305 802 q 269 872 326 857 q 201 888 212 888 q 166 854 166 888 m 305 104 q 106 -148 106 -15 q 126 -212 106 -186 q 182 -243 148 -243 q 241 -222 216 -243 q 272 -155 266 -201 l 305 104 "},"»":{"x_min":106.953125,"x_max":658.390625,"ha":667,"o":"m 106 0 l 238 331 l 129 672 l 220 672 l 388 331 l 198 0 l 106 0 m 275 0 l 473 331 l 297 672 l 388 672 l 658 331 l 366 0 l 275 0 "},"©":{"x_min":41.671875,"x_max":944.515625,"ha":986,"o":"m 41 479 q 167 800 41 668 q 492 932 293 932 q 818 800 691 932 q 944 481 944 669 q 818 161 944 293 q 491 29 691 29 q 166 159 291 29 q 41 479 41 290 m 745 733 q 491 837 641 837 q 238 733 341 837 q 136 479 136 629 q 238 226 136 329 q 491 123 341 123 q 745 226 641 123 q 850 479 850 329 q 745 733 850 629 m 523 330 q 732 427 637 330 l 762 358 q 661 261 738 309 q 480 209 581 209 q 295 279 379 209 q 211 474 211 348 q 293 682 211 600 q 486 763 376 763 q 658 720 597 763 q 719 609 719 676 q 661 515 719 538 q 561 493 605 493 q 580 559 580 531 q 488 663 580 663 q 395 618 431 663 q 358 493 358 572 q 408 372 358 413 q 523 330 458 330 "},"˘":{"x_min":205.578125,"x_max":676.4375,"ha":833,"o":"m 676 972 q 596 793 666 854 q 421 732 526 732 q 254 801 316 732 q 205 927 205 855 q 209 972 205 950 l 288 972 q 287 954 287 963 q 325 872 287 905 q 431 838 362 838 q 543 874 500 838 q 597 972 586 909 l 676 972 "},"≥":{"x_min":23.609375,"x_max":926.46875,"ha":954,"o":"m 56 305 l 636 504 l 105 772 l 122 905 l 926 481 l 38 168 l 56 305 m 41 119 l 843 119 l 827 0 l 23 0 l 41 119 "},"ò":{"x_min":27.78125,"x_max":708.390625,"ha":722,"o":"m 351 1023 l 527 763 q 475 712 491 722 l 225 897 q 286 970 248 930 q 351 1023 323 1009 m 409 668 q 622 586 537 668 q 708 386 708 504 q 603 99 708 206 q 350 -8 498 -8 q 114 76 201 -8 q 27 286 27 161 q 134 563 27 461 q 409 668 243 668 m 382 555 q 272 480 316 555 q 223 291 227 405 q 256 158 223 211 q 355 105 288 105 q 467 179 422 105 q 512 347 512 252 q 480 497 512 441 q 382 555 448 555 "},"^":{"x_min":83.34375,"x_max":791.734375,"ha":833,"o":"m 458 732 l 218 287 l 83 287 l 488 1000 l 791 287 l 657 287 l 458 732 "},"«":{"x_min":141.671875,"x_max":694.5,"ha":833,"o":"m 406 -1 l 141 330 l 434 670 l 526 670 l 326 330 l 500 -1 l 406 -1 m 575 -1 l 409 330 l 602 670 l 694 670 l 559 330 l 668 -1 l 575 -1 "},"D":{"x_min":41.671875,"x_max":1036.1875,"ha":1033,"o":"m 62 744 q 191 977 62 893 q 488 1062 320 1062 q 866 938 704 1062 q 991 772 947 876 q 1036 544 1036 669 q 895 144 1036 298 q 530 -12 750 -12 q 427 0 481 -12 q 341 33 373 12 q 210 -5 290 -5 q 86 38 130 -5 q 41 152 41 83 q 290 431 41 316 q 310 589 297 490 q 331 750 323 688 q 341 830 338 811 q 473 866 398 866 q 540 859 508 866 l 452 266 q 418 134 440 187 q 487 123 461 123 q 734 244 647 123 q 825 550 825 370 q 659 879 825 779 q 458 934 568 934 q 236 858 318 934 q 188 754 188 815 q 208 693 188 722 q 276 661 227 665 l 262 570 q 111 627 161 576 q 62 744 62 677 m 144 170 q 191 120 144 120 q 232 146 211 120 q 262 227 254 172 l 275 313 q 144 170 144 240 "},"ł":{"x_min":-16.28125,"x_max":583.765625,"ha":463,"o":"m 504 887 q 386 598 504 741 l 510 598 l 510 491 l 283 491 l 269 479 q 255 347 262 411 q 237 188 237 204 q 300 116 237 116 q 427 195 368 116 q 518 395 486 273 q 553 372 530 391 q 583 340 575 354 q 483 119 561 225 q 385 30 444 65 q 231 -9 317 -9 q 97 38 146 -9 q 49 169 49 86 q 83 491 49 213 l -14 491 q -16 536 -16 505 q -3 598 -16 568 l 96 598 q 122 814 115 754 q 139 909 129 875 q 169 980 149 943 q 321 1057 211 1057 q 504 887 504 1057 m 285 618 q 412 869 412 758 q 362 936 412 936 q 320 894 330 933 q 301 768 310 855 q 289 659 292 680 l 285 618 "},"ÿ":{"x_min":27.78125,"x_max":779.234375,"ha":675,"o":"m 112 838 q 140 910 112 880 q 211 940 169 940 q 281 910 252 940 q 311 838 311 880 q 281 768 311 797 q 211 738 252 738 q 140 768 169 738 q 112 838 112 797 m 474 910 q 545 940 504 940 q 616 910 587 940 q 645 838 645 880 q 617 768 645 797 q 546 738 588 738 q 474 768 504 738 q 444 838 444 797 q 474 910 444 880 m 284 -412 q 148 -364 205 -412 q 91 -225 91 -316 q 205 -5 91 -112 q 76 47 125 1 q 27 176 27 93 q 37 293 27 215 q 58 461 47 370 q 81 652 69 551 q 161 668 125 668 q 215 665 197 668 q 250 644 233 662 q 266 593 266 626 l 220 238 q 218 208 218 216 q 293 126 218 126 q 404 190 361 126 q 425 374 408 222 q 452 611 441 526 q 504 652 465 637 q 569 668 544 668 q 650 657 613 668 l 584 144 q 779 -79 747 115 q 726 -162 773 -105 q 573 48 698 11 l 551 -125 q 472 -331 536 -250 q 284 -412 408 -412 m 200 -198 q 222 -266 200 -244 q 281 -288 244 -288 q 337 -258 318 -288 q 368 -136 356 -227 l 386 16 q 200 -198 204 -77 "},"Ł":{"x_min":0,"x_max":790.34375,"ha":833,"o":"m 537 120 q 571 115 552 115 q 607 119 590 115 q 639 139 625 123 q 662 165 654 155 q 683 208 670 175 q 720 318 698 247 q 790 236 779 263 q 555 -8 723 -8 q 354 94 476 -8 q 155 -8 290 -8 q 47 31 95 -8 q 0 147 0 72 q 50 270 0 222 q 179 318 100 318 q 222 315 194 318 l 241 491 q 52 441 180 472 l 52 545 q 252 598 156 569 l 280 825 q 516 1057 309 1057 q 647 1011 598 1057 q 697 884 697 966 q 545 626 697 732 l 707 626 l 707 519 l 436 519 l 401 238 l 400 225 q 537 120 502 133 m 593 873 q 544 932 593 932 q 470 794 486 932 l 456 684 q 593 873 593 765 m 105 156 q 152 115 105 115 q 209 197 198 115 q 160 208 183 208 q 121 193 137 208 q 105 156 105 177 "},"í":{"x_min":41.671875,"x_max":479.203125,"ha":319,"o":"m 108 763 l 284 1023 q 350 970 312 1009 q 411 897 387 930 l 161 712 q 108 763 144 722 m 93 615 q 145 653 106 640 q 222 666 184 666 q 290 657 261 666 q 236 234 236 238 q 229 188 229 206 q 230 155 229 169 q 282 119 237 119 q 366 178 327 119 q 423 312 404 237 q 454 279 433 306 q 479 237 475 251 q 386 58 451 126 q 225 -9 318 -9 q 86 36 131 -9 q 41 154 41 81 q 43 186 41 169 l 93 615 "},"ˆ":{"x_min":161.125,"x_max":644.5,"ha":833,"o":"m 402 972 l 644 804 q 598 723 615 750 l 402 825 l 206 723 q 161 804 190 750 l 402 972 "},"w":{"x_min":55.5625,"x_max":1158.421875,"ha":999,"o":"m 607 220 q 691 120 607 120 q 695 120 694 120 q 765 162 734 120 q 811 266 795 204 q 844 498 844 394 l 832 498 q 741 525 773 498 q 708 598 708 555 q 734 668 708 641 q 813 697 766 697 q 952 591 916 697 q 1158 657 1050 615 l 1158 577 q 966 518 1055 538 q 968 486 968 506 q 833 69 962 198 q 635 -6 757 -6 q 454 95 513 -6 q 245 -8 386 -8 q 109 50 162 -8 q 55 190 55 109 q 56 223 55 204 q 105 651 86 465 q 193 668 155 668 q 291 600 291 668 q 270 418 291 573 q 244 197 244 222 q 263 150 244 173 q 317 126 281 126 q 380 158 352 126 q 420 236 408 190 l 469 651 q 563 668 513 668 q 654 600 654 668 q 634 437 654 575 q 607 220 607 243 m 787 598 q 827 575 787 575 q 836 575 832 575 q 807 612 826 612 q 787 598 787 612 "},"$":{"x_min":65.28125,"x_max":722.28125,"ha":678,"o":"m 640 1007 q 722 833 722 945 q 688 700 722 768 l 584 700 q 618 815 618 755 q 618 825 618 820 q 591 893 618 862 l 475 618 q 517 546 487 595 q 559 472 547 497 q 590 411 572 448 q 625 258 625 336 q 541 68 625 141 q 337 -5 456 -5 q 219 16 272 -5 l 194 -41 l 104 -41 l 148 62 q 65 258 65 138 q 108 379 65 322 l 231 376 q 187 273 187 319 q 204 193 187 227 l 330 491 q 306 535 325 502 q 281 579 287 568 q 260 618 275 590 q 239 661 245 647 q 222 698 233 675 q 208 738 212 722 q 195 820 195 788 q 271 988 195 920 q 479 1055 347 1055 q 565 1044 523 1055 l 570 1057 l 661 1057 l 640 1007 m 494 934 q 418 903 447 934 q 388 820 388 872 q 422 707 388 768 l 518 933 q 494 934 511 934 m 316 116 q 403 148 368 116 q 436 227 438 180 q 380 397 433 297 l 266 129 q 316 116 291 116 "},"∫":{"x_min":101.390625,"x_max":713.953125,"ha":833,"o":"m 495 1009 q 533 1013 516 1013 q 665 980 620 1013 q 713 886 713 941 q 663 805 713 832 q 612 788 632 788 q 581 798 593 788 q 587 843 587 816 q 561 895 587 869 q 522 836 529 890 q 518 782 520 826 l 484 31 q 427 -112 480 -61 q 288 -163 375 -163 q 255 -159 272 -163 q 142 -117 183 -152 q 101 -33 101 -81 q 132 41 101 15 q 193 68 163 68 q 243 56 225 68 q 233 5 233 31 q 255 -47 233 -20 q 311 125 302 -33 q 340 816 316 293 q 386 950 344 902 q 493 1009 429 998 l 495 1009 "},"\\":{"x_min":27.78125,"x_max":694.5,"ha":722,"o":"m 27 1057 l 143 1057 l 694 -138 l 579 -138 l 27 1057 "},"Ì":{"x_min":56.953125,"x_max":773.671875,"ha":671,"o":"m 436 1412 l 612 1152 q 559 1101 576 1111 l 309 1286 q 370 1359 333 1319 q 436 1412 408 1398 m 772 900 q 728 909 750 909 q 686 883 707 909 q 659 807 666 857 l 587 291 q 491 70 568 151 q 298 -9 413 -9 q 120 54 183 -9 q 56 209 56 119 q 118 361 56 298 q 275 423 180 423 q 366 415 333 423 l 359 330 q 286 336 336 336 q 199 302 237 336 q 161 219 161 269 q 188 142 161 169 q 255 115 216 115 q 391 287 372 115 q 445 752 429 632 q 298 723 362 723 q 143 770 197 723 q 90 894 90 818 q 145 1014 90 970 q 283 1058 200 1058 q 431 1026 334 1058 q 580 994 527 994 q 738 1043 675 994 q 773 927 773 994 q 772 900 773 913 m 227 857 q 250 820 227 836 q 320 805 273 805 q 441 847 366 805 q 330 875 387 859 q 262 891 273 891 q 227 857 227 891 "},"Ç":{"x_min":41.671875,"x_max":937.578125,"ha":799,"o":"m 479 -44 q 571 -77 530 -44 q 612 -175 612 -111 q 564 -279 612 -238 q 455 -319 516 -319 q 309 -252 356 -319 l 334 -200 q 378 -237 347 -219 q 440 -255 409 -255 q 491 -232 470 -255 q 511 -174 511 -209 q 484 -118 511 -138 q 418 -97 456 -97 q 372 -98 379 -97 l 406 -6 q 129 115 218 6 q 41 397 41 223 q 103 718 41 570 q 287 961 165 866 q 552 1057 409 1057 q 775 988 694 1057 q 857 803 857 919 q 785 611 857 687 q 618 534 713 534 q 469 577 522 534 q 416 667 416 619 q 454 742 416 715 q 566 769 493 769 q 548 721 548 751 q 566 669 548 691 q 622 647 584 647 q 697 686 659 647 q 734 791 734 726 q 695 895 734 857 q 583 934 655 934 q 411 858 488 934 q 294 663 334 782 q 254 415 254 545 q 302 216 254 302 q 377 145 327 172 q 493 119 426 119 q 712 192 607 119 q 890 380 818 265 l 937 295 q 743 84 859 168 q 484 -6 626 1 l 470 -45 l 479 -44 "},"’":{"x_min":41.671875,"x_max":297.25,"ha":346,"o":"m 63 988 q 96 1065 63 1032 q 177 1098 129 1098 q 261 1068 226 1098 q 297 977 297 1037 q 236 836 297 916 q 116 709 175 757 q 105 708 113 708 q 72 716 97 708 q 41 730 47 725 q 155 875 106 805 q 90 913 116 882 q 63 988 63 944 "},"-":{"x_min":45.84375,"x_max":588.9375,"ha":636,"o":"m 58 579 l 588 579 l 576 459 l 45 459 l 58 579 "},"Q":{"x_min":69.453125,"x_max":993.140625,"ha":1013,"o":"m 754 590 q 744 651 754 627 q 788 685 758 672 q 845 698 818 698 q 893 690 872 698 q 963 565 963 655 q 798 150 963 325 q 873 106 838 106 q 932 163 932 106 q 927 195 932 179 q 993 104 993 165 q 954 15 993 44 q 861 -13 915 -13 q 707 73 780 -13 q 438 -8 580 -8 q 164 108 259 -8 q 69 412 69 225 q 106 650 69 534 q 210 857 144 766 q 376 1002 276 947 q 585 1057 476 1057 q 764 1007 694 1057 q 834 870 834 958 q 788 752 834 804 q 659 700 741 700 q 583 721 616 700 q 550 790 550 743 q 561 829 550 812 q 583 850 572 845 l 595 855 q 640 800 595 800 q 676 814 661 800 q 693 847 691 829 q 691 875 694 865 q 680 900 688 886 q 598 934 661 934 q 443 857 516 934 q 325 657 369 779 q 281 406 281 534 q 316 216 281 300 q 373 146 336 172 q 463 120 411 120 q 619 195 551 120 q 494 308 545 308 q 458 298 487 308 l 479 372 q 544 395 506 395 q 688 298 612 395 q 754 590 754 431 "},"M":{"x_min":15.28125,"x_max":1294.546875,"ha":1125,"o":"m 916 1047 q 998 1058 945 1058 q 1093 1051 1051 1058 q 1025 472 1050 732 q 999 200 1001 213 q 997 175 997 186 q 1032 138 998 138 q 1263 330 1115 138 q 1294 231 1290 256 q 1134 59 1227 126 q 957 -8 1040 -8 q 841 34 873 -8 q 809 130 809 77 q 813 179 809 143 q 868 629 816 215 l 640 102 l 522 102 l 454 620 l 356 190 q 279 38 333 87 q 162 -9 226 -9 q 58 27 98 -9 q 15 141 15 68 q 243 393 15 288 q 376 1050 366 986 q 466 1058 409 1058 q 543 1055 522 1058 l 552 1055 l 638 409 l 916 1040 l 916 1047 m 113 165 q 148 120 113 120 q 187 158 172 120 q 219 279 206 204 q 113 165 113 219 "},"C":{"x_min":41.671875,"x_max":937.578125,"ha":799,"o":"m 458 -8 q 142 101 243 -8 q 41 391 41 211 q 103 718 41 570 q 287 961 165 866 q 552 1057 409 1057 q 775 988 694 1057 q 857 803 857 919 q 785 611 857 687 q 618 534 713 534 q 469 577 522 534 q 416 667 416 619 q 454 742 416 715 q 566 769 493 769 q 548 721 548 751 q 566 669 548 691 q 622 647 584 647 q 697 686 659 647 q 734 791 734 726 q 695 895 734 857 q 583 934 655 934 q 411 858 488 934 q 294 663 334 782 q 254 415 254 545 q 302 216 254 302 q 377 145 327 172 q 493 119 426 119 q 712 192 607 119 q 890 380 818 265 l 937 295 q 732 77 855 162 q 458 -8 608 -8 "},"œ":{"x_min":27.78125,"x_max":1284.828125,"ha":1125,"o":"m 782 311 q 910 380 868 329 q 952 479 952 431 q 927 545 952 527 q 870 562 901 562 q 756 489 805 562 q 707 316 707 416 q 754 165 707 215 q 873 116 802 116 q 1073 188 977 116 q 1229 377 1169 261 q 1284 305 1259 348 q 1122 101 1238 201 q 984 22 1063 52 q 819 -8 904 -8 q 590 87 675 -8 q 345 -8 490 -8 q 114 76 201 -8 q 27 286 27 161 q 134 563 27 461 q 409 668 243 668 q 634 573 547 668 q 879 668 740 668 q 1052 621 986 668 q 1120 495 1119 575 q 1035 322 1120 388 q 801 229 950 255 l 782 311 m 223 291 q 256 158 223 211 q 355 105 288 105 q 467 179 422 105 q 512 347 512 252 q 480 497 512 441 q 382 555 448 555 q 272 480 316 555 q 223 291 227 405 "},"!":{"x_min":54.171875,"x_max":450.03125,"ha":478,"o":"m 216 1154 q 313 1168 244 1168 q 450 1104 450 1168 q 448 1091 450 1098 l 276 363 l 127 363 l 216 1154 m 86 166 q 166 200 119 200 q 247 166 213 200 q 280 86 280 133 q 247 6 280 38 q 166 -26 213 -26 q 86 6 119 -26 q 54 86 54 38 q 86 166 54 133 "},"ç":{"x_min":50,"x_max":819.515625,"ha":651,"o":"m 480 470 q 400 561 480 561 q 293 493 340 561 q 243 320 243 419 q 286 168 243 222 q 406 115 330 115 q 600 190 498 115 q 765 376 702 265 q 819 300 793 355 q 680 127 784 227 q 547 39 626 77 q 386 -6 469 1 l 370 -45 l 379 -44 q 471 -77 430 -44 q 512 -175 512 -111 q 464 -279 512 -238 q 355 -319 416 -319 q 209 -252 256 -319 l 234 -200 q 278 -237 247 -219 q 340 -255 309 -255 q 391 -232 370 -255 q 411 -174 411 -209 q 384 -118 411 -138 q 318 -97 356 -97 q 272 -98 279 -97 l 306 -6 q 122 90 194 6 q 50 297 50 173 q 161 565 50 462 q 409 668 272 668 q 579 623 516 668 q 641 506 641 579 q 608 425 641 459 q 459 363 547 363 q 480 470 480 433 "},"È":{"x_min":30.5625,"x_max":907.015625,"ha":668,"o":"m 502 1412 l 679 1152 q 626 1101 643 1111 l 376 1286 q 437 1359 400 1319 q 502 1412 475 1398 m 325 484 q 244 315 244 427 q 295 181 244 244 q 466 119 345 119 q 695 201 587 119 q 859 380 804 283 l 907 295 q 408 -8 727 -8 q 140 77 250 -8 q 30 277 30 162 q 209 569 30 479 q 150 741 150 643 q 261 963 150 870 q 520 1057 373 1057 q 747 982 668 1057 q 827 784 827 907 l 695 784 q 656 897 697 859 q 542 936 615 936 q 411 883 469 936 q 345 750 345 826 q 387 618 345 673 q 598 600 526 634 q 643 534 643 579 q 592 470 643 488 q 470 452 541 452 q 325 484 400 452 "},"ﬁ":{"x_min":22.21875,"x_max":1040.359375,"ha":881,"o":"m 420 -1 q 497 -224 497 -136 q 443 -367 497 -312 q 304 -422 390 -422 q 163 -374 218 -422 q 108 -241 108 -326 q 113 -175 108 -225 l 156 200 q 22 375 75 309 q 101 440 69 440 q 129 425 116 440 q 175 368 143 409 l 227 834 q 272 983 238 926 q 436 1057 316 1057 q 565 1010 520 1057 q 609 882 609 963 q 538 665 609 772 q 372 477 466 558 l 337 143 q 404 116 361 116 q 619 313 537 116 l 654 615 q 707 653 668 640 q 784 666 745 666 q 851 657 822 666 q 797 234 797 238 q 790 188 790 206 q 791 155 790 169 q 843 119 798 119 q 927 178 888 119 q 984 312 965 237 q 1015 279 994 306 q 1040 237 1036 251 q 947 58 1012 126 q 775 -9 879 -9 q 666 20 712 -9 q 607 109 620 51 q 420 -1 533 22 m 867 866 q 788 834 834 834 q 711 866 743 834 q 679 944 679 898 q 711 1023 679 990 q 788 1055 743 1055 q 867 1023 834 1055 q 900 944 900 990 q 867 866 900 898 m 486 936 q 472 937 479 937 q 422 888 434 937 q 391 665 409 840 l 386 612 q 482 742 445 673 q 519 867 519 811 q 486 936 519 923 m 300 -211 q 298 -240 298 -218 q 312 -279 298 -263 q 349 -294 326 -294 q 390 -275 372 -294 q 408 -218 408 -256 q 320 -16 408 -144 l 300 -211 "},"{":{"x_min":27.78125,"x_max":526.4375,"ha":526,"o":"m 141 497 q 187 613 175 497 q 220 929 212 869 q 272 1024 229 990 q 379 1058 316 1058 q 526 1007 463 1058 l 511 945 q 479 957 494 957 q 408 936 423 957 q 388 874 393 915 q 378 780 384 833 q 362 652 372 727 q 347 529 352 577 q 255 411 336 431 q 315 313 315 386 l 269 -63 q 269 -84 269 -68 q 323 -130 269 -126 q 380 -119 358 -130 l 380 -180 q 231 -230 297 -230 q 127 -195 165 -230 q 90 -106 88 -161 q 113 101 93 -51 q 137 281 137 266 q 115 329 137 329 q 100 327 105 329 q 84 314 95 326 q 59 276 72 302 l 27 291 q 79 367 44 333 q 159 413 115 401 q 63 534 80 443 l 98 550 q 127 498 111 502 q 141 497 131 497 "},"X":{"x_min":13.890625,"x_max":1059.8125,"ha":1022,"o":"m 115 968 q 313 1075 184 1075 q 422 1038 368 1075 q 511 900 477 1002 l 579 686 l 675 850 q 768 986 730 944 q 904 1059 836 1059 q 1016 1019 972 1059 q 1059 922 1059 979 q 977 752 1059 820 q 691 650 905 690 l 625 543 q 712 277 683 363 q 766 154 741 190 q 820 118 790 118 q 872 127 850 118 q 907 147 894 137 q 935 172 919 158 q 955 190 951 187 l 973 87 q 897 26 955 61 q 777 -8 838 -8 q 611 42 673 -8 q 501 254 550 93 l 472 351 l 388 209 q 283 51 318 87 q 166 -8 227 -8 q 59 30 105 -8 q 13 131 13 69 q 40 240 13 194 q 119 316 68 286 q 359 397 211 368 q 426 500 395 455 l 333 811 q 318 857 327 826 q 304 901 309 887 q 288 932 298 915 q 232 954 270 962 q 133 868 194 945 l 115 968 m 954 877 q 904 915 954 915 q 845 885 870 915 q 796 816 819 855 q 771 775 773 777 q 767 768 769 772 q 762 759 765 763 q 954 877 954 805 m 169 136 q 220 169 195 136 q 295 287 252 213 q 119 173 119 244 q 169 136 119 136 "},"ô":{"x_min":27.78125,"x_max":708.390625,"ha":722,"o":"m 393 972 l 634 804 q 588 723 605 750 l 393 825 l 197 723 q 151 804 180 750 l 393 972 m 409 668 q 622 586 537 668 q 708 386 708 504 q 603 99 708 206 q 350 -8 498 -8 q 114 76 201 -8 q 27 286 27 161 q 134 563 27 461 q 409 668 243 668 m 382 555 q 272 480 316 555 q 223 291 227 405 q 256 158 223 211 q 355 105 288 105 q 467 179 422 105 q 512 347 512 252 q 480 497 512 441 q 382 555 448 555 "},"¼":{"x_min":45.84375,"x_max":1108.421875,"ha":1192,"o":"m 990 1057 l 215 -138 l 100 -138 l 875 1057 l 990 1057 m 402 506 q 394 430 394 448 l 45 430 l 55 506 l 169 506 l 205 833 l 83 822 l 93 887 q 254 972 229 922 l 343 972 l 290 506 l 402 506 m 983 538 q 1050 494 1050 538 q 1009 265 1050 472 q 1108 143 1108 241 q 1061 16 1108 55 q 979 -11 1025 -11 q 899 15 927 -11 q 870 86 870 43 q 873 106 870 93 l 883 180 l 687 180 l 687 183 q 668 222 680 193 q 655 256 655 251 q 657 262 655 261 q 776 506 776 419 q 734 555 776 538 q 834 588 768 588 q 885 572 868 588 q 902 538 902 555 q 902 510 902 522 q 893 476 901 498 q 868 423 884 454 q 841 372 852 393 q 808 316 829 351 q 783 272 787 280 l 897 272 l 938 533 q 983 538 966 538 m 1004 68 q 1045 133 1045 68 q 1034 168 1045 155 q 993 184 1023 181 l 982 101 q 1004 68 982 68 "},"#":{"x_min":20.828125,"x_max":865.34375,"ha":893,"o":"m 740 393 l 725 287 l 534 287 l 413 -11 l 308 -11 l 429 287 l 268 287 l 147 -11 l 41 -11 l 162 287 l 20 287 l 33 393 l 205 393 l 287 593 l 131 593 l 144 698 l 330 698 l 441 973 l 547 973 l 436 698 l 597 698 l 708 973 l 813 973 l 702 698 l 865 698 l 850 593 l 659 593 l 577 393 l 740 393 m 311 393 l 472 393 l 554 593 l 393 593 l 311 393 "},"Ê":{"x_min":30.5625,"x_max":907.015625,"ha":668,"o":"m 544 1361 l 786 1193 q 740 1112 757 1138 l 544 1213 l 348 1112 q 302 1193 331 1138 l 544 1361 m 325 484 q 244 315 244 427 q 295 181 244 244 q 466 119 345 119 q 695 201 587 119 q 859 380 804 283 l 907 295 q 408 -8 727 -8 q 140 77 250 -8 q 30 277 30 162 q 209 569 30 479 q 150 741 150 643 q 261 963 150 870 q 520 1057 373 1057 q 747 982 668 1057 q 827 784 827 907 l 695 784 q 656 897 697 859 q 542 936 615 936 q 411 883 469 936 q 345 750 345 826 q 387 618 345 673 q 598 600 526 634 q 643 534 643 579 q 592 470 643 488 q 470 452 541 452 q 325 484 400 452 "},")":{"x_min":27.78125,"x_max":590.328125,"ha":620,"o":"m 590 477 q 397 -40 590 154 q 27 -219 236 -201 l 40 -102 q 395 384 341 -51 q 402 501 402 445 q 355 747 402 640 q 161 940 290 897 l 177 1058 q 504 812 395 994 q 590 477 590 668 "},"Å":{"x_min":47.21875,"x_max":1161.203125,"ha":992,"o":"m 844 -2 q 727 47 766 -2 q 673 237 687 98 q 657 425 665 309 q 461 363 559 395 l 413 233 q 394 179 400 195 q 374 131 388 163 q 349 85 359 100 q 320 48 338 70 q 281 16 301 26 q 175 -8 231 -8 q 82 32 118 -8 q 47 133 47 73 q 50 168 47 150 q 323 411 68 301 q 563 1033 395 595 l 591 1045 q 526 1157 526 1087 q 568 1270 526 1227 q 672 1312 611 1312 q 775 1270 733 1312 q 818 1163 818 1227 q 766 1055 818 1100 l 790 1050 q 854 240 791 984 q 869 159 859 177 q 902 140 879 140 q 1006 193 941 140 q 1122 325 1070 245 l 1161 230 l 1127 186 q 844 -2 982 -2 m 720 1214 q 672 1234 700 1234 q 624 1214 644 1234 q 604 1166 604 1194 q 624 1118 604 1138 q 672 1098 644 1098 q 720 1118 700 1098 q 740 1166 740 1138 q 720 1214 740 1194 m 623 816 l 502 479 q 647 527 600 512 l 623 816 m 145 162 q 179 118 145 118 q 219 154 204 118 q 275 290 237 193 q 145 162 145 225 "},"ø":{"x_min":27.78125,"x_max":708.390625,"ha":722,"o":"m 708 386 q 603 99 708 206 q 341 -8 498 -8 l 322 -8 l 258 -222 l 143 -222 l 213 13 q 77 120 126 47 q 27 286 27 193 q 134 563 27 461 q 405 668 241 666 l 409 668 l 501 973 l 616 973 l 519 650 q 657 547 605 619 q 708 386 708 475 m 256 156 l 376 554 q 268 472 308 547 q 223 291 227 398 q 256 156 223 208 m 356 105 q 469 182 426 109 q 512 354 512 255 q 476 505 512 452 l 356 105 "},"â":{"x_min":41.671875,"x_max":907.015625,"ha":761,"o":"m 466 972 l 708 804 q 662 723 679 750 l 466 825 l 270 723 q 225 804 254 750 l 466 972 m 663 -6 q 494 81 536 -6 q 309 -8 422 -8 q 118 68 195 -8 q 41 269 41 144 q 148 559 41 451 q 419 668 255 668 q 427 668 423 668 q 555 644 497 668 q 646 668 593 668 q 723 654 700 668 q 697 452 711 551 q 677 311 683 352 q 665 175 665 216 q 709 119 665 119 q 783 165 744 119 q 851 312 822 212 q 907 231 891 276 q 798 46 866 100 q 663 -6 730 -6 m 440 559 q 299 492 351 559 q 237 291 247 425 q 236 268 236 279 q 268 159 236 200 q 352 119 301 119 q 484 243 440 119 l 518 543 q 440 559 477 559 "},"}":{"x_min":0,"x_max":493.09375,"ha":528,"o":"m 384 336 q 338 219 351 336 q 303 -101 312 -45 q 252 -190 294 -156 q 147 -225 209 -225 q 0 -173 62 -225 l 15 -112 q 47 -123 31 -123 q 118 -102 102 -123 q 140 -7 134 -81 q 176 304 147 66 q 269 420 188 394 q 205 519 205 444 l 251 897 q 251 918 251 901 q 197 963 251 959 q 140 952 162 963 l 140 1013 q 289 1063 223 1063 q 393 1029 355 1063 q 429 939 431 994 q 405 732 427 884 q 383 551 383 566 q 405 504 383 504 q 420 505 415 504 q 436 518 425 506 q 461 556 448 530 l 493 541 q 442 466 476 500 q 365 419 408 433 q 429 373 404 406 q 462 298 455 340 l 427 283 q 400 334 415 330 q 384 336 394 336 "},"‰":{"x_min":48.609375,"x_max":1718.1875,"ha":1767,"o":"m 48 702 l 50 736 q 138 972 65 887 q 330 1057 211 1057 q 485 986 426 1057 q 544 779 544 915 l 543 733 q 454 511 526 597 q 279 426 383 426 q 106 504 163 426 q 48 702 48 581 m 909 1057 l 1025 1057 l 250 -138 l 134 -138 l 909 1057 m 177 716 q 176 683 176 708 q 179 631 176 658 q 188 572 181 604 q 276 504 205 504 q 367 568 329 504 q 415 759 405 633 q 418 790 418 779 q 326 979 418 977 q 226 909 266 979 q 177 716 186 840 m 677 277 l 679 309 q 768 545 695 461 q 962 630 841 630 q 1116 559 1058 630 q 1173 354 1173 488 l 1172 306 q 1086 84 1158 170 q 912 -1 1015 -1 q 893 0 902 -1 q 734 80 790 5 q 677 277 677 155 m 1222 277 l 1223 309 q 1313 545 1240 461 q 1507 630 1386 630 q 1660 559 1602 630 q 1718 354 1718 488 l 1716 306 q 1631 84 1702 170 q 1457 -1 1559 -1 q 1437 0 1447 -1 q 1278 80 1334 5 q 1222 277 1222 155 m 805 268 q 897 76 805 80 q 904 76 900 76 q 997 141 958 76 q 1044 331 1036 206 q 1048 363 1048 361 q 955 551 1048 550 q 856 482 895 551 q 807 290 816 413 q 805 268 805 280 m 1350 268 q 1441 76 1350 80 q 1448 76 1444 76 q 1541 141 1502 76 q 1589 331 1580 206 q 1593 363 1593 361 q 1500 551 1593 550 q 1400 482 1440 551 q 1351 290 1361 413 q 1350 268 1350 280 "},"Ä":{"x_min":47.21875,"x_max":1161.203125,"ha":992,"o":"m 423 1227 q 452 1299 423 1269 q 522 1329 480 1329 q 593 1299 563 1329 q 622 1227 622 1269 q 593 1157 622 1186 q 522 1127 563 1127 q 452 1157 480 1127 q 423 1227 423 1186 m 785 1299 q 857 1329 815 1329 q 927 1299 898 1329 q 957 1227 957 1269 q 928 1157 957 1186 q 857 1127 900 1127 q 785 1157 815 1127 q 755 1227 755 1186 q 785 1299 755 1269 m 844 -2 q 727 47 766 -2 q 673 237 687 98 q 657 425 665 309 q 461 363 559 395 l 413 233 q 394 179 400 195 q 374 131 388 163 q 349 85 359 100 q 320 48 338 70 q 281 16 301 26 q 175 -8 231 -8 q 82 32 118 -8 q 47 133 47 73 q 50 168 47 150 q 323 411 68 301 q 563 1033 395 595 q 676 1058 608 1058 q 705 1058 691 1058 q 739 1058 719 1058 q 790 1050 759 1058 q 854 240 791 984 q 869 159 859 177 q 902 140 879 140 q 1006 193 941 140 q 1122 325 1070 245 l 1161 230 l 1127 186 q 844 -2 982 -2 m 623 816 l 502 479 q 647 527 600 512 l 623 816 m 145 162 q 179 118 145 118 q 219 154 204 118 q 275 290 237 193 q 145 162 145 225 "},"¸":{"x_min":265.296875,"x_max":568.09375,"ha":833,"o":"m 434 -44 q 527 -77 486 -44 q 568 -175 568 -111 q 520 -279 568 -238 q 411 -319 472 -319 q 265 -252 312 -319 l 290 -200 q 334 -237 302 -219 q 395 -255 365 -255 q 446 -232 426 -255 q 466 -174 466 -209 q 439 -118 466 -138 q 373 -97 412 -97 q 327 -98 334 -97 l 384 51 l 462 51 l 426 -45 l 434 -44 "},"a":{"x_min":41.671875,"x_max":907.015625,"ha":761,"o":"m 663 -6 q 494 81 536 -6 q 309 -8 422 -8 q 118 68 195 -8 q 41 269 41 144 q 148 559 41 451 q 419 668 255 668 q 427 668 423 668 q 555 644 497 668 q 646 668 593 668 q 723 654 700 668 q 697 452 711 551 q 677 311 683 352 q 665 175 665 216 q 709 119 665 119 q 783 165 744 119 q 851 312 822 212 q 907 231 891 276 q 798 46 866 100 q 663 -6 730 -6 m 440 559 q 299 492 351 559 q 237 291 247 425 q 236 268 236 279 q 268 159 236 200 q 352 119 301 119 q 484 243 440 119 l 518 543 q 440 559 477 559 "},"—":{"x_min":-125.015625,"x_max":972.296875,"ha":833,"o":"m -111 554 l 972 554 l 957 434 l -125 434 l -111 554 "},"=":{"x_min":12.5,"x_max":713.953125,"ha":728,"o":"m 43 548 l 59 668 l 713 668 l 698 548 l 43 548 m 669 298 l 12 298 l 30 418 l 684 418 l 669 298 "},"N":{"x_min":36.109375,"x_max":1150.09375,"ha":1014,"o":"m 822 855 q 883 1009 837 962 q 1004 1057 929 1057 q 1114 1013 1079 1057 q 1150 925 1150 969 q 1147 897 1150 911 q 943 657 1116 743 l 845 0 l 612 0 l 447 732 l 370 190 q 307 38 355 87 q 195 -9 259 -9 q 89 27 131 -9 q 37 134 47 65 q 36 156 36 145 q 243 393 36 294 l 302 840 q 363 855 337 855 q 406 851 388 855 q 305 901 375 901 q 183 829 236 901 l 156 948 q 249 1021 183 984 q 395 1058 315 1058 q 530 1010 475 1058 q 611 850 586 962 l 741 300 l 822 855 m 961 776 q 1047 890 1047 837 q 1040 912 1047 900 q 1019 925 1033 925 q 983 895 993 925 q 961 776 969 855 m 229 277 q 133 172 133 223 q 170 120 133 120 q 206 153 195 120 q 227 270 218 186 l 229 277 "},"˚":{"x_min":261.125,"x_max":552.828125,"ha":833,"o":"m 304 936 q 406 979 347 979 q 509 936 466 979 q 552 833 552 894 q 509 729 552 772 q 406 687 466 687 q 304 729 347 687 q 261 833 261 772 q 304 936 261 894 m 454 881 q 406 901 434 901 q 359 881 379 901 q 338 833 338 861 q 359 785 338 805 q 406 765 379 765 q 454 785 434 765 q 475 833 475 805 q 454 881 475 861 "},"ú":{"x_min":41.671875,"x_max":850.0625,"ha":704,"o":"m 312 770 l 488 1030 q 554 977 516 1016 q 615 904 591 938 l 365 719 q 312 770 348 729 m 665 654 q 608 175 608 204 q 648 119 608 119 q 727 168 684 119 q 794 316 769 218 q 850 238 840 266 q 748 48 818 104 q 605 -6 679 -6 q 443 86 484 -6 q 250 -6 370 -6 q 95 43 150 -6 q 41 173 41 93 q 48 241 41 193 q 97 652 80 500 q 176 668 140 668 q 230 665 212 668 q 265 644 248 662 q 281 593 281 626 l 236 238 q 233 208 233 222 q 308 126 233 126 q 423 194 377 126 q 426 243 423 209 l 472 612 q 513 652 481 636 q 593 668 545 668 q 665 654 641 668 "},"⁄":{"x_min":2.78125,"x_max":893.125,"ha":833,"o":"m 777 1057 l 893 1057 l 118 -138 l 2 -138 l 777 1057 "},"2":{"x_min":34.71875,"x_max":800.0625,"ha":856,"o":"m 791 313 q 800 258 800 279 q 736 51 800 109 q 566 -6 673 -6 q 386 18 490 -6 q 240 44 281 44 q 236 44 237 44 q 87 0 151 44 l 36 122 l 34 122 q 168 254 68 165 q 289 364 268 344 q 350 417 311 384 q 411 470 388 450 q 468 528 434 491 q 520 597 501 565 q 579 769 579 691 q 538 886 579 847 q 447 926 498 925 q 344 886 379 923 q 308 807 309 848 q 313 744 306 765 l 125 744 q 180 941 112 861 q 454 1057 275 1057 q 698 982 604 1057 q 793 768 793 907 q 677 505 793 636 q 620 445 638 462 q 333 208 484 319 q 450 186 359 204 q 573 168 547 168 q 660 205 630 168 q 708 313 690 243 l 791 313 "},"ü":{"x_min":41.671875,"x_max":850.0625,"ha":704,"o":"m 138 845 q 167 917 138 887 q 237 947 195 947 q 308 917 279 947 q 337 845 337 887 q 308 775 337 804 q 237 745 279 745 q 167 775 195 745 q 138 845 138 804 m 500 917 q 572 947 530 947 q 643 917 613 947 q 672 845 672 887 q 643 775 672 804 q 572 745 615 745 q 500 775 530 745 q 470 845 470 804 q 500 917 470 887 m 665 654 q 608 175 608 204 q 648 119 608 119 q 727 168 684 119 q 794 316 769 218 q 850 238 840 266 q 748 48 818 104 q 605 -6 679 -6 q 443 86 484 -6 q 250 -6 370 -6 q 95 43 150 -6 q 41 173 41 93 q 48 241 41 193 q 97 652 80 500 q 176 668 140 668 q 230 665 212 668 q 265 644 248 662 q 281 593 281 626 l 236 238 q 233 208 233 222 q 308 126 233 126 q 423 194 377 126 q 426 243 423 209 l 472 612 q 513 652 481 636 q 593 668 545 668 q 665 654 641 668 "},"¯":{"x_min":166.6875,"x_max":750.0625,"ha":833,"o":"m 166 972 l 750 972 l 750 858 l 166 858 l 166 972 "},"Z":{"x_min":26.390625,"x_max":819.515625,"ha":743,"o":"m 632 336 q 768 291 718 337 q 819 176 819 245 q 766 53 819 106 q 607 0 713 0 l 40 0 q 26 73 26 34 q 55 151 26 112 l 537 891 l 490 891 q 383 769 452 818 q 228 720 313 720 q 92 765 143 719 q 41 880 41 811 q 94 1003 41 950 q 254 1057 147 1057 l 807 1057 q 813 1009 813 1033 q 787 930 813 966 l 291 165 l 370 165 q 477 287 408 238 q 632 336 547 336 m 252 891 q 162 848 162 891 q 247 805 162 805 q 393 891 331 805 l 252 891 m 608 165 q 698 208 698 165 q 613 251 698 251 q 468 165 529 251 l 608 165 "},"u":{"x_min":41.671875,"x_max":850.0625,"ha":704,"o":"m 665 654 q 608 175 608 204 q 648 119 608 119 q 727 168 684 119 q 794 316 769 218 q 850 238 840 266 q 748 48 818 104 q 605 -6 679 -6 q 443 86 484 -6 q 250 -6 370 -6 q 95 43 150 -6 q 41 173 41 93 q 48 241 41 193 q 97 652 80 500 q 176 668 140 668 q 230 665 212 668 q 265 644 248 662 q 281 593 281 626 l 236 238 q 233 208 233 222 q 308 126 233 126 q 423 194 377 126 q 426 243 423 209 l 472 612 q 513 652 481 636 q 593 668 545 668 q 665 654 641 668 "},"˜":{"x_min":55.5625,"x_max":632,"ha":590,"o":"m 222 970 q 359 922 283 970 q 468 873 436 873 q 570 968 531 873 l 632 933 q 571 785 619 843 q 458 727 523 727 q 319 779 393 727 q 213 832 244 832 q 161 814 183 832 q 116 750 138 797 l 55 786 q 118 918 73 866 q 222 970 162 970 "},"Ó":{"x_min":111.125,"x_max":1284.828125,"ha":1038,"o":"m 559 1152 l 736 1412 q 801 1359 763 1398 q 862 1286 838 1319 l 612 1101 q 559 1152 595 1111 m 1284 558 q 1179 496 1252 523 q 1061 469 1105 469 q 997 472 1018 469 q 820 129 962 266 q 489 -8 677 -8 q 206 108 301 -8 q 111 412 111 225 q 148 650 111 534 q 252 857 186 766 q 418 1002 318 947 q 627 1057 518 1057 q 806 1007 736 1057 q 876 870 876 958 q 829 752 876 804 q 701 700 783 700 q 625 721 658 700 q 591 790 591 743 q 602 829 591 812 q 625 850 613 845 l 637 855 q 682 800 637 800 q 718 814 702 800 q 734 847 733 829 q 733 875 736 865 q 722 900 730 886 q 640 934 702 934 q 484 857 558 934 q 367 657 411 779 q 323 406 323 534 q 358 216 323 300 q 415 146 377 172 q 505 120 452 120 q 661 194 593 120 q 763 372 730 268 q 795 583 795 476 l 795 600 q 791 629 791 615 q 838 730 791 695 q 915 752 869 752 q 955 748 927 752 q 994 736 983 744 q 949 716 965 734 q 933 668 933 698 q 961 611 933 637 q 1082 573 1000 573 q 1254 641 1165 573 l 1284 558 "},"k":{"x_min":27.78125,"x_max":827.84375,"ha":689,"o":"m 675 500 q 502 279 675 355 q 515 219 506 254 q 598 113 540 116 q 607 113 602 113 q 772 309 718 113 q 827 230 801 283 q 772 104 808 155 q 695 30 737 52 q 556 -8 622 -8 q 343 162 404 -8 q 311 301 319 230 q 436 366 390 320 q 481 462 481 411 q 393 551 481 551 q 309 514 344 551 q 263 426 275 477 q 236 203 255 355 q 212 0 218 51 l 27 0 q 148 1045 127 851 q 227 1057 177 1057 q 336 993 336 1057 l 336 984 q 284 600 308 733 q 476 670 361 670 q 618 626 562 670 q 675 500 675 581 "},"ˇ":{"x_min":201.40625,"x_max":665.328125,"ha":833,"o":"m 201 972 l 312 972 l 433 857 l 554 972 l 665 972 l 500 752 l 352 752 l 201 972 "},"Ù":{"x_min":0,"x_max":1030.640625,"ha":836,"o":"m 434 1412 l 611 1152 q 558 1101 575 1111 l 308 1286 q 369 1359 331 1319 q 434 1412 406 1398 m 612 1025 q 666 1046 620 1036 q 751 1057 711 1057 q 818 1045 791 1057 q 716 206 716 234 q 734 157 716 179 q 784 136 751 136 q 948 387 876 136 q 950 394 948 390 q 951 400 951 398 q 1030 351 1012 361 q 916 84 984 176 q 741 -8 848 -8 q 597 93 634 -8 l 593 93 q 497 15 550 38 q 365 -8 444 -8 q 164 59 234 -8 q 94 254 94 127 q 98 312 94 280 l 137 637 q 0 866 0 734 q 52 1005 0 954 q 187 1057 105 1057 q 358 876 358 1057 q 354 811 358 847 l 283 268 q 281 238 281 258 q 306 151 281 184 q 383 118 331 118 q 529 309 506 118 l 612 1025 m 136 929 q 88 871 88 929 q 152 758 88 813 l 156 794 q 166 884 165 866 q 136 929 166 929 "},"Ÿ":{"x_min":34.71875,"x_max":1033.421875,"ha":895,"o":"m 291 1227 q 320 1299 291 1269 q 390 1329 348 1329 q 461 1299 431 1329 q 490 1227 490 1269 q 461 1157 490 1186 q 390 1127 431 1127 q 320 1157 348 1127 q 291 1227 291 1186 m 653 1299 q 725 1329 683 1329 q 795 1299 766 1329 q 825 1227 825 1269 q 796 1157 825 1186 q 725 1127 768 1127 q 653 1157 683 1127 q 623 1227 623 1186 q 653 1299 623 1269 m 434 893 l 433 869 q 394 547 429 804 q 351 225 351 238 q 377 154 351 183 q 447 126 404 126 q 528 156 491 126 q 584 227 565 186 l 662 937 q 714 1029 669 1001 q 809 1058 759 1058 q 879 1044 843 1058 l 786 275 q 1012 375 969 359 l 1033 277 q 773 162 911 227 l 738 -120 q 702 -249 730 -195 q 633 -330 673 -302 q 472 -380 559 -380 q 328 -317 386 -380 q 270 -165 270 -254 q 329 -4 270 -76 q 206 60 255 8 q 158 188 158 112 q 161 219 158 197 l 205 561 q 34 827 34 669 q 141 1030 34 975 q 256 1058 191 1058 q 377 1017 320 1058 q 434 893 434 976 m 204 945 q 149 913 170 945 q 127 837 127 882 q 219 677 127 740 l 245 877 q 218 944 245 934 q 204 945 212 945 m 376 -147 q 399 -218 376 -193 q 454 -243 422 -243 q 511 -220 486 -243 q 541 -155 536 -197 l 566 62 q 376 -147 376 -41 "},"€":{"x_min":-40.28125,"x_max":937.578125,"ha":833,"o":"m 726 804 l 725 822 q 723 832 725 826 q 688 904 716 880 l 691 905 q 584 934 655 932 l 583 934 q 402 849 481 934 q 284 629 323 763 l 609 629 l 580 530 l 262 530 q 256 476 259 512 l 554 476 l 525 377 l 255 377 q 318 193 262 266 q 491 119 375 119 q 712 192 607 119 q 890 380 818 265 l 937 295 q 732 77 855 162 q 458 -8 608 -8 q 164 97 277 -8 q 41 377 51 202 l -40 377 l -40 476 l 44 476 q 51 530 45 494 l -38 530 l -38 629 l 73 629 q 256 936 127 816 q 565 1057 386 1057 q 775 1004 704 1057 q 850 869 847 951 q 855 804 855 836 l 726 804 "},"¢":{"x_min":27.78125,"x_max":745.890625,"ha":774,"o":"m 27 297 q 121 543 27 444 q 341 663 215 641 l 386 1057 l 491 1057 l 447 665 q 582 612 533 655 q 632 514 632 569 q 597 425 632 459 q 447 363 536 363 q 461 462 461 412 q 433 538 461 512 l 387 133 l 401 131 q 409 131 405 131 q 561 178 481 131 q 690 319 640 225 l 745 258 q 495 18 668 79 q 370 -6 437 -2 l 327 -394 l 222 -394 l 266 0 q 97 104 166 23 q 27 297 27 186 m 219 330 q 286 170 219 220 l 329 550 q 250 470 281 529 q 219 330 219 412 "},"ß":{"x_min":27.78125,"x_max":765.34375,"ha":800,"o":"m 418 -213 q 353 -409 418 -341 q 210 -476 288 -476 q 79 -429 131 -476 q 27 -288 27 -381 q 155 820 27 -266 q 234 987 166 918 q 420 1057 301 1057 q 623 1000 538 1057 q 708 854 708 943 q 670 741 708 790 q 594 666 633 691 q 494 558 494 598 q 503 532 494 540 q 516 522 512 525 q 527 513 519 519 q 559 493 544 502 q 604 462 573 483 q 658 423 634 441 q 711 375 682 405 q 765 218 765 318 q 684 55 765 119 q 481 -8 604 -8 q 335 36 397 -8 q 273 150 273 81 q 319 250 273 218 q 406 283 365 283 q 425 280 422 283 q 402 255 412 276 q 393 202 393 234 q 416 145 393 170 q 475 120 438 120 q 536 143 511 120 q 565 209 562 166 q 540 293 565 256 q 450 390 515 329 q 386 509 386 451 q 417 622 386 568 q 483 737 448 676 q 518 845 518 798 q 498 912 518 893 q 449 934 476 934 q 405 926 422 934 q 377 898 388 918 q 356 847 365 879 q 338 734 345 802 q 322 597 330 666 q 293 368 315 529 q 263 148 270 208 l 254 68 q 418 -213 418 -56 m 212 -284 q 268 -350 212 -350 q 310 -319 290 -350 q 330 -233 330 -288 q 243 -30 330 -122 l 213 -258 q 212 -284 212 -268 "},"é":{"x_min":36.109375,"x_max":807.015625,"ha":647,"o":"m 313 763 l 490 1023 q 555 970 518 1009 q 616 897 593 930 l 366 712 q 313 763 350 722 m 304 311 q 432 380 390 329 q 475 479 475 431 q 449 545 475 527 q 393 562 423 562 q 278 489 327 562 q 229 316 229 416 q 277 165 229 215 q 395 116 325 116 q 595 188 500 116 q 751 377 691 261 q 807 305 782 348 q 644 101 761 201 q 506 22 586 52 q 341 -8 426 -8 q 122 76 202 -8 q 36 311 36 168 q 143 561 36 454 q 401 668 251 668 q 575 621 508 668 q 643 495 641 575 q 557 322 643 388 q 323 229 472 255 l 304 311 "},"s":{"x_min":-62.109375,"x_max":735.171875,"ha":715,"o":"m 625 425 q 735 234 735 344 q 649 58 735 125 q 432 -8 562 -8 q 291 34 347 -8 q 235 138 235 76 q 276 238 235 201 q 380 283 318 275 q 351 203 351 241 q 378 141 351 165 q 444 118 404 118 q 511 147 485 118 q 537 216 537 177 q 478 330 537 280 q 400 385 442 359 q 355 412 358 411 q 344 419 350 416 q 272 339 319 390 q 197 258 225 288 q 110 116 119 173 q 107 74 107 105 q 126 9 107 43 q 171 -40 144 -23 q 223 -67 197 -56 q 267 -81 249 -77 q 286 -87 286 -86 q 255 -109 286 -97 q 137 -130 199 -130 q 17 -86 75 -130 q -62 76 -62 -25 q -30 200 -62 138 q 236 497 26 308 q 185 606 185 548 q 228 705 185 665 q 332 745 272 745 q 426 702 386 745 q 453 629 453 673 q 424 529 453 584 q 625 425 572 462 m 324 581 q 357 632 357 616 q 326 669 357 666 q 292 630 292 669 q 324 581 292 607 "},"B":{"x_min":44.453125,"x_max":987.578125,"ha":982,"o":"m 58 751 q 175 970 58 883 q 483 1057 291 1057 q 665 1036 584 1057 q 793 986 745 1016 q 872 915 840 955 q 924 760 925 845 q 857 608 923 675 q 695 538 790 541 q 900 461 813 530 q 987 286 987 391 q 880 69 987 147 q 620 -8 773 -8 q 411 31 466 -8 l 454 148 q 596 116 515 116 q 729 164 677 116 q 780 291 780 212 q 710 425 780 370 q 519 479 640 479 l 531 581 q 672 621 615 581 q 732 740 730 661 q 661 873 734 819 q 444 930 581 930 q 268 884 354 930 q 181 759 181 837 q 212 696 181 722 q 293 665 243 670 l 277 562 q 115 622 172 566 q 58 751 58 677 m 455 266 q 369 56 433 118 q 219 -5 305 -5 q 88 38 133 -5 q 44 152 44 83 q 293 431 44 316 q 313 589 300 490 q 334 750 326 688 q 344 830 341 811 q 476 866 401 866 q 543 859 511 866 l 455 266 m 147 170 q 194 120 147 120 q 235 146 213 120 q 265 227 256 172 l 277 313 q 147 170 147 240 "},"…":{"x_min":83.34375,"x_max":932.015625,"ha":972,"o":"m 115 166 q 195 200 148 200 q 276 166 243 200 q 309 86 309 133 q 276 6 309 38 q 195 -26 243 -26 q 115 6 148 -26 q 83 86 83 38 q 115 166 83 133 m 427 166 q 506 200 459 200 q 587 166 554 200 q 620 86 620 133 q 587 6 620 38 q 506 -26 554 -26 q 427 6 459 -26 q 394 86 394 38 q 427 166 394 133 m 738 166 q 818 200 770 200 q 898 166 865 200 q 932 86 932 133 q 898 6 932 38 q 818 -26 865 -26 q 738 6 770 -26 q 705 86 705 38 q 738 166 705 133 "},"?":{"x_min":111.125,"x_max":713.953125,"ha":726,"o":"m 111 866 q 204 1052 115 977 q 424 1126 294 1126 q 634 1057 554 1126 q 713 879 713 988 q 713 872 713 876 q 543 569 707 694 q 466 514 516 548 q 390 461 416 480 q 338 411 363 441 q 308 330 306 368 q 311 313 309 316 l 176 313 q 158 358 163 326 q 152 401 152 390 q 193 521 152 468 q 285 611 234 575 q 386 684 336 647 q 472 772 436 720 q 509 885 509 829 q 479 975 509 941 q 386 1009 448 1009 q 284 963 323 1009 q 244 852 244 916 q 270 750 244 787 l 136 750 q 111 866 111 811 m 147 149 q 227 183 180 183 q 308 149 275 183 q 341 68 341 115 q 308 -11 341 20 q 227 -44 275 -44 q 147 -11 180 -44 q 113 68 113 20 q 147 149 113 115 "},"H":{"x_min":62.5,"x_max":982.015625,"ha":1007,"o":"m 776 1025 q 829 1046 784 1036 q 915 1057 875 1057 q 982 1045 955 1057 l 845 0 l 657 0 l 711 469 l 693 463 q 461 390 565 426 l 441 237 q 211 -8 408 -8 q 101 34 140 -8 q 62 143 62 76 q 272 411 62 291 l 343 1013 q 412 1044 369 1032 q 495 1057 455 1057 q 548 1055 536 1057 l 476 502 q 690 568 561 533 l 723 576 l 776 1025 m 159 163 q 200 119 159 119 q 229 132 222 119 q 239 154 236 145 q 245 179 243 163 q 250 206 248 194 q 252 237 251 218 q 255 268 254 256 l 258 288 q 159 163 159 220 "},"î":{"x_min":-37.5,"x_max":479.203125,"ha":319,"o":"m 204 972 l 445 804 q 400 723 416 750 l 204 825 l 8 723 q -37 804 -8 750 l 204 972 m 93 615 q 145 653 106 640 q 222 666 184 666 q 290 657 261 666 q 236 234 236 238 q 229 188 229 206 q 230 155 229 169 q 282 119 237 119 q 366 178 327 119 q 423 312 404 237 q 454 279 433 306 q 479 237 475 251 q 386 58 451 126 q 225 -9 318 -9 q 86 36 131 -9 q 41 154 41 81 q 43 186 41 169 l 93 615 "},"c":{"x_min":50,"x_max":819.515625,"ha":651,"o":"m 480 470 q 400 561 480 561 q 293 493 340 561 q 243 320 243 419 q 286 168 243 222 q 406 115 330 115 q 600 190 498 115 q 765 376 702 265 q 819 300 793 355 q 669 119 779 219 q 527 30 612 66 q 344 -8 436 -8 q 135 76 220 -8 q 50 297 50 161 q 161 565 50 462 q 409 668 272 668 q 579 623 516 668 q 641 506 641 579 q 608 425 641 459 q 459 363 547 363 q 480 470 480 433 "},"¶":{"x_min":29.171875,"x_max":773.671875,"ha":833,"o":"m 408 418 l 334 412 q 122 477 215 412 q 29 663 29 543 q 116 869 29 780 q 459 979 216 970 l 465 1027 q 601 1058 512 1058 q 640 1055 620 1058 l 630 962 l 662 954 l 673 1057 l 748 1057 l 734 930 q 773 911 748 925 l 750 816 l 723 827 l 632 0 l 556 0 l 651 850 l 618 857 l 554 272 q 316 -1 525 -1 q 188 42 237 -1 q 140 154 140 86 q 184 264 140 222 q 284 306 227 306 q 362 300 341 306 l 356 237 q 309 240 344 240 q 254 220 275 240 q 233 169 233 200 q 252 120 233 138 q 297 101 272 101 q 391 240 377 101 l 408 418 m 263 679 q 307 566 263 615 q 416 513 351 516 l 448 863 q 336 824 380 857 q 278 755 293 791 q 263 679 263 719 "},"−":{"x_min":22.21875,"x_max":690.328125,"ha":738,"o":"m 34 579 l 690 579 l 677 459 l 22 459 l 34 579 "},"≠":{"x_min":0,"x_max":701.4375,"ha":728,"o":"m 672 418 l 657 298 l 358 298 l 227 -138 l 112 -138 l 243 298 l 0 298 l 18 418 l 279 418 l 318 548 l 30 548 l 47 668 l 354 668 l 470 1057 l 586 1057 l 469 668 l 701 668 l 686 548 l 433 548 l 394 418 l 672 418 "},"•":{"x_min":250.015625,"x_max":541.703125,"ha":833,"o":"m 293 625 q 395 668 336 668 q 498 625 455 668 q 541 522 541 583 q 498 418 541 461 q 395 376 455 376 q 293 418 336 376 q 250 522 250 461 q 293 625 250 583 "},"¥":{"x_min":36.109375,"x_max":716.71875,"ha":853,"o":"m 247 1051 q 338 983 338 1051 q 316 797 338 980 q 293 586 293 615 q 369 506 293 506 q 479 575 436 506 q 542 721 523 644 q 561 869 561 798 q 516 952 561 940 q 516 963 518 954 q 518 989 513 973 q 530 1020 523 1005 q 556 1045 537 1034 q 601 1057 575 1057 q 697 998 666 1057 q 716 919 716 959 q 711 847 716 879 q 638 614 690 723 q 511 443 587 505 l 655 443 l 640 323 l 455 323 l 444 248 l 630 248 l 615 129 l 429 129 l 411 0 l 222 0 l 236 129 l 36 129 l 50 248 l 250 248 l 258 323 l 58 323 l 72 443 l 156 443 q 104 600 104 502 q 105 638 104 618 l 152 1034 q 247 1051 197 1051 "},"(":{"x_min":29.171875,"x_max":591.71875,"ha":620,"o":"m 216 337 q 263 91 216 198 q 458 -101 329 -58 l 441 -219 q 115 26 223 -155 q 29 361 29 170 q 222 879 29 684 q 591 1058 383 1040 l 579 941 q 223 454 277 890 q 216 337 216 393 "},"U":{"x_min":0,"x_max":1030.640625,"ha":836,"o":"m 612 1025 q 666 1046 620 1036 q 751 1057 711 1057 q 818 1045 791 1057 q 716 206 716 234 q 734 157 716 179 q 784 136 751 136 q 948 387 876 136 q 950 394 948 390 q 951 400 951 398 q 1030 351 1012 361 q 916 84 984 176 q 741 -8 848 -8 q 597 93 634 -8 l 593 93 q 497 15 550 38 q 365 -8 444 -8 q 164 59 234 -8 q 94 254 94 127 q 98 312 94 280 l 137 637 q 0 866 0 734 q 52 1005 0 954 q 187 1057 105 1057 q 358 876 358 1057 q 354 811 358 847 l 283 268 q 281 238 281 258 q 306 151 281 184 q 383 118 331 118 q 529 309 506 118 l 612 1025 m 136 929 q 88 871 88 929 q 152 758 88 813 l 156 794 q 166 884 165 866 q 136 929 166 929 "},"◊":{"x_min":72.234375,"x_max":769.5,"ha":885,"o":"m 72 390 l 458 752 l 769 390 l 383 41 l 72 390 m 636 390 l 441 605 l 205 390 l 400 175 l 636 390 "},"Ñ":{"x_min":36.109375,"x_max":1150.09375,"ha":1014,"o":"m 567 1359 q 704 1311 627 1359 q 812 1262 780 1262 q 915 1357 876 1262 l 976 1322 q 916 1174 963 1232 q 802 1116 868 1116 q 663 1168 737 1116 q 558 1220 588 1220 q 505 1203 527 1220 q 461 1138 483 1186 l 400 1175 q 462 1307 418 1255 q 567 1359 506 1359 m 822 855 q 883 1009 837 962 q 1004 1057 929 1057 q 1114 1013 1079 1057 q 1150 925 1150 969 q 1147 897 1150 911 q 943 657 1116 743 l 845 0 l 612 0 l 447 732 l 370 190 q 307 38 355 87 q 195 -9 259 -9 q 89 27 131 -9 q 37 134 47 65 q 36 156 36 145 q 243 393 36 294 l 302 840 q 363 855 337 855 q 406 851 388 855 q 305 901 375 901 q 183 829 236 901 l 156 948 q 249 1021 183 984 q 395 1058 315 1058 q 530 1010 475 1058 q 611 850 586 962 l 741 300 l 822 855 m 961 776 q 1047 890 1047 837 q 1040 912 1047 900 q 1019 925 1033 925 q 983 895 993 925 q 961 776 969 855 m 229 277 q 133 172 133 223 q 170 120 133 120 q 206 153 195 120 q 227 270 218 186 l 229 277 "},"F":{"x_min":34.71875,"x_max":848.671875,"ha":772,"o":"m 634 818 q 480 836 579 818 q 223 730 341 730 q 215 730 219 730 q 82 775 130 732 q 34 892 34 819 q 82 1011 34 965 q 225 1057 130 1057 q 425 1015 287 1057 q 640 972 569 972 q 794 1055 757 972 l 848 1018 q 634 818 818 818 m 172 850 q 231 815 172 815 q 377 859 291 815 q 209 890 255 890 q 183 878 194 890 q 172 850 172 866 m 551 747 l 529 598 l 736 598 q 748 541 748 569 q 722 495 748 513 q 655 476 695 476 l 509 476 l 508 463 q 683 216 683 380 q 618 42 683 93 q 463 -8 552 -8 q 326 36 375 -8 q 277 156 277 81 q 280 188 277 169 l 318 476 l 187 476 q 201 598 195 555 l 334 598 l 350 720 q 470 755 422 755 q 551 747 519 755 m 506 118 q 565 142 540 118 q 590 219 590 166 q 495 379 590 323 q 472 186 473 225 q 482 133 472 148 q 506 118 493 118 "},"­":{"x_min":45.84375,"x_max":588.9375,"ha":636,"o":"m 588 579 l 576 459 l 45 459 l 58 579 l 588 579 "},":":{"x_min":68.0625,"x_max":351.421875,"ha":404,"o":"m 157 652 q 237 686 190 686 q 318 652 284 686 q 351 572 351 619 q 318 492 351 525 q 237 459 284 459 q 157 492 190 459 q 125 572 125 525 q 157 652 125 619 m 100 166 q 180 200 133 200 q 261 166 227 200 q 294 86 294 133 q 261 6 294 38 q 180 -26 227 -26 q 100 6 133 -26 q 68 86 68 38 q 100 166 68 133 "},"Û":{"x_min":0,"x_max":1030.640625,"ha":836,"o":"m 476 1361 l 718 1193 q 672 1112 688 1138 l 476 1213 l 280 1112 q 234 1193 263 1138 l 476 1361 m 612 1025 q 666 1046 620 1036 q 751 1057 711 1057 q 818 1045 791 1057 q 716 206 716 234 q 734 157 716 179 q 784 136 751 136 q 948 387 876 136 q 950 394 948 390 q 951 400 951 398 q 1030 351 1012 361 q 916 84 984 176 q 741 -8 848 -8 q 597 93 634 -8 l 593 93 q 497 15 550 38 q 365 -8 444 -8 q 164 59 234 -8 q 94 254 94 127 q 98 312 94 280 l 137 637 q 0 866 0 734 q 52 1005 0 954 q 187 1057 105 1057 q 358 876 358 1057 q 354 811 358 847 l 283 268 q 281 238 281 258 q 306 151 281 184 q 383 118 331 118 q 529 309 506 118 l 612 1025 m 136 929 q 88 871 88 929 q 152 758 88 813 l 156 794 q 166 884 165 866 q 136 929 166 929 "},"*":{"x_min":62.5,"x_max":479.203125,"ha":540,"o":"m 191 969 q 179 997 179 984 q 215 1055 179 1040 q 242 1059 229 1059 q 273 1048 255 1059 q 290 1004 291 1037 l 283 854 l 191 969 m 407 1015 q 451 998 436 1015 q 466 968 466 982 q 430 907 466 923 l 288 854 l 361 987 q 407 1015 379 1015 m 136 802 q 111 800 125 800 q 81 814 98 800 q 62 859 63 829 q 86 900 65 888 q 120 912 106 912 q 145 908 134 912 l 277 850 l 136 802 m 475 791 q 479 768 479 780 q 469 741 479 755 q 425 713 452 713 q 379 733 397 713 l 287 848 l 433 822 q 475 791 462 819 m 288 700 q 268 655 288 669 q 235 641 248 641 q 213 643 222 641 q 175 694 175 657 q 188 730 175 712 l 283 847 l 288 700 "},"†":{"x_min":72.234375,"x_max":686.171875,"ha":833,"o":"m 363 -137 l 248 -137 l 329 572 l 72 548 l 88 668 l 337 644 l 383 1057 l 498 1057 l 452 647 l 686 668 l 670 548 l 443 569 l 363 -137 "},"°":{"x_min":190.296875,"x_max":579.21875,"ha":833,"o":"m 191 863 q 263 1000 201 944 q 406 1057 326 1057 q 532 1005 486 1057 q 579 888 579 954 q 577 863 579 876 q 509 727 570 784 q 367 670 447 670 q 238 724 287 670 q 190 845 190 777 q 191 863 190 854 m 491 877 q 466 941 491 912 q 397 969 441 969 q 319 938 354 969 q 279 859 279 902 q 305 787 279 816 q 375 758 331 758 q 453 789 419 758 q 490 863 487 820 q 491 877 491 870 "},"V":{"x_min":11.109375,"x_max":1113.984375,"ha":935,"o":"m 972 1057 q 1075 1018 1037 1057 q 1113 922 1113 980 q 1038 750 1113 816 q 840 625 963 683 q 601 0 740 366 l 370 0 q 314 768 323 661 q 295 895 305 876 q 255 915 284 915 q 104 655 181 915 q 11 702 37 687 q 172 1009 81 932 q 318 1062 233 1062 q 436 1012 394 1062 q 491 818 477 962 q 511 518 498 741 q 530 223 525 295 l 538 223 l 751 813 q 829 984 797 943 q 972 1057 882 1057 m 1019 882 q 1008 911 1019 900 q 978 922 997 922 q 946 893 959 922 q 888 751 933 863 q 1019 882 1019 819 "},"å":{"x_min":41.671875,"x_max":907.015625,"ha":761,"o":"m 523 654 l 555 644 q 646 668 593 668 q 723 654 700 668 q 697 452 711 551 q 677 311 683 352 q 665 175 665 216 q 709 119 665 119 q 783 165 744 119 q 851 312 822 212 q 907 231 891 276 q 798 46 866 100 q 663 -6 730 -6 q 494 81 536 -6 q 309 -8 422 -8 q 118 68 195 -8 q 41 269 41 144 q 127 536 41 430 q 355 663 213 641 q 300 773 300 708 q 343 881 300 838 q 445 923 386 923 q 548 881 505 923 q 591 777 591 838 q 523 654 591 697 m 493 825 q 445 845 473 845 q 397 825 418 845 q 377 777 377 805 q 397 729 377 750 q 445 709 418 709 q 493 729 473 709 q 513 777 513 750 q 493 825 513 805 m 440 559 q 299 492 351 559 q 237 291 247 425 q 236 268 236 279 q 268 159 236 200 q 352 119 301 119 q 484 243 440 119 l 518 543 q 440 559 477 559 "}," ":{"x_min":0,"x_max":0,"ha":306},"0":{"x_min":62.5,"x_max":872.296875,"ha":935,"o":"m 429 0 q 154 127 243 0 q 62 465 65 255 q 65 522 62 500 q 201 915 86 773 q 511 1057 316 1057 q 515 1057 513 1057 q 770 936 673 1054 q 872 591 868 818 q 800 252 872 404 q 643 67 741 134 q 429 0 545 0 m 651 630 q 504 923 651 923 q 349 807 404 923 q 279 451 294 690 q 316 206 284 270 q 359 155 330 177 q 433 130 390 130 q 577 238 518 130 q 650 556 636 345 q 651 630 651 595 "},"”":{"x_min":41.671875,"x_max":558.375,"ha":600,"o":"m 63 988 q 96 1065 63 1032 q 177 1098 129 1098 q 261 1068 226 1098 q 297 977 297 1037 q 236 836 297 916 q 116 709 175 757 q 105 708 113 708 q 72 716 97 708 q 41 730 47 725 q 155 875 106 805 q 90 913 116 882 q 63 988 63 944 m 325 988 q 357 1065 325 1032 q 438 1098 390 1098 q 522 1068 487 1098 q 558 977 558 1037 q 497 836 558 916 q 377 709 436 757 q 366 708 375 708 q 333 716 358 708 q 302 730 308 725 q 416 875 368 805 q 351 913 377 882 q 325 988 325 944 "},"¾":{"x_min":52.78125,"x_max":1104.25,"ha":1181,"o":"m 126 -138 l 901 1057 l 1016 1057 l 241 -138 l 126 -138 m 338 586 q 225 666 338 666 l 190 666 l 197 732 q 264 735 231 732 q 316 757 297 738 q 341 820 336 776 q 327 879 343 855 q 280 904 311 904 q 208 838 216 904 q 212 797 205 823 l 101 797 q 98 833 98 816 q 134 913 98 880 q 284 972 197 972 q 415 933 370 972 q 459 833 459 894 q 386 709 459 755 q 450 666 427 694 q 473 602 473 637 q 402 468 473 513 q 268 430 345 430 q 52 543 122 430 l 165 607 q 192 527 166 554 q 255 500 218 500 q 316 524 293 500 q 338 586 338 548 m 730 547 q 830 580 763 580 q 881 563 863 580 q 898 530 898 547 q 897 502 898 513 q 888 468 897 490 q 864 415 880 445 q 836 363 848 384 q 804 307 825 343 q 779 263 783 272 l 893 263 l 934 525 q 987 530 962 530 q 1045 483 1045 530 q 1005 256 1045 463 q 1104 134 1104 233 q 1057 8 1104 47 q 975 -19 1020 -19 q 895 7 923 -19 q 866 77 866 34 q 869 98 866 84 l 879 172 l 683 172 l 683 175 q 663 213 676 184 q 651 247 651 243 q 652 254 651 252 q 772 498 772 411 q 730 547 772 530 m 1000 59 q 1041 125 1041 59 q 1030 160 1041 147 q 988 176 1019 173 q 977 93 988 176 q 1000 59 977 59 "},"@":{"x_min":62.5,"x_max":1001.46875,"ha":1036,"o":"m 220 668 q 379 757 293 726 q 551 787 465 787 q 713 764 637 787 q 854 696 788 741 q 961 572 920 651 q 1001 393 1001 494 q 938 158 1001 250 q 777 66 875 66 q 644 190 662 66 q 570 97 618 133 q 461 62 523 62 q 310 124 365 62 q 255 290 255 186 q 320 491 255 394 q 413 570 352 540 q 546 601 473 601 q 684 580 619 601 q 738 588 708 588 q 791 575 768 588 q 747 209 747 277 q 795 158 747 158 q 868 220 838 158 q 897 383 897 281 q 806 609 897 529 q 552 690 715 690 q 279 588 388 690 q 169 300 169 487 q 263 74 169 163 q 495 -15 358 -15 q 586 -6 559 -15 q 630 6 613 1 l 651 13 q 662 -13 657 11 q 668 -53 668 -38 q 665 -73 668 -68 q 488 -105 577 -105 q 189 -1 316 -105 q 62 290 62 102 q 105 511 62 413 q 220 668 148 609 m 573 505 q 438 447 490 505 q 386 298 386 390 q 415 203 386 234 q 489 172 444 172 q 569 207 534 172 q 618 312 604 243 l 643 497 q 573 505 598 505 "},"ö":{"x_min":27.78125,"x_max":708.390625,"ha":722,"o":"m 123 838 q 152 910 123 880 q 222 940 180 940 q 293 910 263 940 q 322 838 322 880 q 293 768 322 797 q 222 738 263 738 q 152 768 180 738 q 123 838 123 797 m 485 910 q 556 940 515 940 q 627 910 598 940 q 657 838 657 880 q 628 768 657 797 q 557 738 600 738 q 485 768 515 738 q 455 838 455 797 q 485 910 455 880 m 409 668 q 622 586 537 668 q 708 386 708 504 q 603 99 708 206 q 350 -8 498 -8 q 114 76 201 -8 q 27 286 27 161 q 134 563 27 461 q 409 668 243 668 m 382 555 q 272 480 316 555 q 223 291 227 405 q 256 158 223 211 q 355 105 288 105 q 467 179 422 105 q 512 347 512 252 q 480 497 512 441 q 382 555 448 555 "},"i":{"x_min":43.0625,"x_max":480.59375,"ha":321,"o":"m 151 1023 q 229 1055 183 1055 q 307 1023 275 1055 q 340 944 340 990 q 307 866 340 898 q 229 834 275 834 q 151 866 183 834 q 119 944 119 898 q 151 1023 119 990 m 94 615 q 147 653 108 640 q 224 666 186 666 q 291 657 262 666 q 237 234 237 238 q 230 188 230 206 q 233 155 230 169 q 284 119 238 119 q 367 178 329 119 q 425 312 405 237 q 455 279 434 306 q 480 237 476 251 q 386 58 452 126 q 226 -9 319 -9 q 88 36 133 -9 q 43 154 43 81 q 44 186 43 169 l 94 615 "},"≤":{"x_min":38.890625,"x_max":941.734375,"ha":970,"o":"m 875 301 l 858 168 l 54 591 l 941 905 l 923 768 l 344 569 l 875 301 m 56 119 l 858 119 l 843 0 l 38 0 l 56 119 "},"Õ":{"x_min":111.125,"x_max":1284.828125,"ha":1038,"o":"m 560 1359 q 697 1311 620 1359 q 805 1262 773 1262 q 908 1357 869 1262 l 969 1322 q 909 1174 957 1232 q 795 1116 861 1116 q 658 1168 730 1116 q 551 1220 581 1220 q 498 1203 520 1220 q 454 1138 476 1186 l 393 1175 q 455 1307 411 1255 q 560 1359 500 1359 m 1284 558 q 1179 496 1252 523 q 1061 469 1105 469 q 997 472 1018 469 q 820 129 962 266 q 489 -8 677 -8 q 206 108 301 -8 q 111 412 111 225 q 148 650 111 534 q 252 857 186 766 q 418 1002 318 947 q 627 1057 518 1057 q 806 1007 736 1057 q 876 870 876 958 q 829 752 876 804 q 701 700 783 700 q 625 721 658 700 q 591 790 591 743 q 602 829 591 812 q 625 850 613 845 l 637 855 q 682 800 637 800 q 718 814 702 800 q 734 847 733 829 q 733 875 736 865 q 722 900 730 886 q 640 934 702 934 q 484 857 558 934 q 367 657 411 779 q 323 406 323 534 q 358 216 323 300 q 415 146 377 172 q 505 120 452 120 q 661 194 593 120 q 763 372 730 268 q 795 583 795 476 l 795 600 q 791 629 791 615 q 838 730 791 695 q 915 752 869 752 q 955 748 927 752 q 994 736 983 744 q 949 716 965 734 q 933 668 933 698 q 961 611 933 637 q 1082 573 1000 573 q 1254 641 1165 573 l 1284 558 "},"þ":{"x_min":-18.0625,"x_max":697.28125,"ha":833,"o":"m 453 669 q 625 587 552 669 q 697 395 697 505 q 695 363 697 380 q 573 86 680 181 q 294 -8 466 -8 q 208 4 245 -5 l 163 -380 l -18 -380 l 51 215 q 68 369 55 275 l 102 658 q 120 819 109 719 q 147 1045 144 1027 q 225 1057 176 1057 q 336 993 336 1057 l 288 623 q 453 669 354 669 m 237 190 q 261 136 237 158 q 329 115 286 115 q 445 180 400 115 q 501 386 501 259 q 473 494 501 447 q 387 541 445 541 q 266 448 306 541 l 259 401 l 255 363 q 237 190 237 223 "},"]":{"x_min":25,"x_max":591.71875,"ha":622,"o":"m 590 1057 l 590 1054 l 591 1054 l 430 -170 l 430 -172 l 25 -172 l 40 -68 l 330 -68 l 462 952 l 169 952 l 181 1057 l 590 1057 "},"m":{"x_min":48.609375,"x_max":1262.59375,"ha":1117,"o":"m 437 0 l 490 461 q 471 525 490 500 q 405 551 452 551 q 327 506 358 551 q 288 411 297 461 q 234 0 240 65 l 48 0 l 125 652 q 213 668 183 668 q 309 609 301 668 q 458 668 377 668 q 663 572 619 668 q 858 669 732 669 q 1005 621 951 669 q 1059 501 1059 573 q 1051 427 1059 480 q 1019 183 1019 219 q 1062 118 1019 118 q 1139 165 1098 118 q 1205 313 1180 213 q 1262 234 1252 263 q 1007 -6 1190 -6 q 879 45 920 -6 q 837 156 837 98 l 870 463 q 851 526 870 501 q 789 551 832 551 q 715 519 747 551 q 670 437 683 487 q 616 0 629 84 l 437 0 "},"8":{"x_min":62.5,"x_max":786.265625,"ha":849,"o":"m 609 555 q 699 486 669 512 q 755 411 729 459 q 782 302 782 362 q 759 187 782 241 q 561 19 705 62 q 413 -1 495 -1 q 148 84 231 -1 q 62 279 62 173 q 261 566 62 465 q 145 777 145 672 q 244 981 145 905 q 475 1057 343 1057 q 696 991 608 1057 q 786 809 784 926 q 609 555 790 662 m 629 811 q 583 894 629 862 q 483 926 537 926 q 386 892 429 926 q 344 808 344 858 q 402 708 344 755 q 494 638 426 688 q 603 719 576 679 q 629 811 630 759 m 398 130 q 522 168 472 130 q 572 261 572 205 q 563 315 572 293 q 531 360 555 337 q 494 394 508 383 q 437 434 480 405 q 377 473 394 462 q 260 391 301 440 q 219 293 219 343 q 270 173 219 216 q 398 130 325 130 "},"ž":{"x_min":27.78125,"x_max":595.875,"ha":607,"o":"m 118 972 l 229 972 l 350 857 l 470 972 l 581 972 l 416 752 l 269 752 l 118 972 m 431 -12 l 45 -4 q 27 45 27 -4 q 48 122 27 94 q 163 284 69 177 q 277 409 194 319 q 387 533 361 500 l 313 537 q 253 456 293 487 q 165 425 213 425 q 75 457 109 425 q 40 548 40 490 q 80 641 40 607 q 191 676 120 676 l 577 668 q 595 620 595 668 q 577 545 595 572 q 529 481 561 515 q 438 391 498 447 q 355 311 379 334 q 216 131 262 218 l 309 126 q 370 207 330 176 q 458 238 409 238 q 548 206 513 238 q 583 115 583 173 q 543 22 583 56 q 431 -12 502 -12 m 180 547 q 131 515 131 547 q 168 483 131 483 q 254 541 222 483 l 197 545 q 180 547 188 547 m 443 116 q 491 148 491 116 q 455 180 491 180 q 369 122 401 180 l 426 118 q 443 116 434 116 "},"R":{"x_min":23.609375,"x_max":1082.03125,"ha":929,"o":"m 1037 298 l 1082 230 q 800 -8 1013 -8 q 716 9 751 -8 q 662 52 680 27 q 633 116 644 77 q 617 270 618 175 q 593 402 616 366 q 506 443 570 438 l 522 561 q 526 561 525 561 q 659 607 607 561 q 716 738 716 658 q 641 875 716 819 q 445 930 565 930 q 208 854 291 930 q 163 754 163 812 q 276 665 163 680 l 256 561 q 106 618 172 565 q 41 754 41 670 q 163 978 41 900 q 473 1057 286 1057 q 686 1027 594 1057 q 894 844 843 975 q 911 770 911 798 q 911 732 911 741 q 854 581 905 655 q 702 480 804 508 q 786 427 763 468 q 809 305 808 387 q 822 135 811 165 q 872 105 834 105 q 1037 298 973 105 m 186 -8 q 68 36 112 -8 q 23 145 23 80 q 272 429 23 315 q 323 827 322 818 q 455 865 381 865 q 525 857 486 865 l 437 263 q 186 -8 395 -8 m 126 162 q 173 118 126 118 q 244 218 229 118 l 256 312 q 126 162 126 236 "},"á":{"x_min":41.671875,"x_max":907.015625,"ha":761,"o":"m 370 763 l 547 1023 q 612 970 575 1009 q 673 897 650 930 l 423 712 q 370 763 406 722 m 663 -6 q 494 81 536 -6 q 309 -8 422 -8 q 118 68 195 -8 q 41 269 41 144 q 148 559 41 451 q 419 668 255 668 q 427 668 423 668 q 555 644 497 668 q 646 668 593 668 q 723 654 700 668 q 697 452 711 551 q 677 311 683 352 q 665 175 665 216 q 709 119 665 119 q 783 165 744 119 q 851 312 822 212 q 907 231 891 276 q 798 46 866 100 q 663 -6 730 -6 m 440 559 q 299 492 351 559 q 237 291 247 425 q 236 268 236 279 q 268 159 236 200 q 352 119 301 119 q 484 243 440 119 l 518 543 q 440 559 477 559 "},"×":{"x_min":-65.28125,"x_max":637.546875,"ha":532,"o":"m 541 95 l 293 366 l 11 88 l -65 175 l 215 451 l -18 705 l 68 791 l 302 538 l 563 795 l 637 708 l 380 454 l 632 183 l 541 95 "},"o":{"x_min":27.78125,"x_max":708.390625,"ha":722,"o":"m 409 668 q 622 586 537 668 q 708 386 708 504 q 603 99 708 206 q 350 -8 498 -8 q 114 76 201 -8 q 27 286 27 161 q 134 563 27 461 q 409 668 243 668 m 382 555 q 272 480 316 555 q 223 291 227 405 q 256 158 223 211 q 355 105 288 105 q 467 179 422 105 q 512 347 512 252 q 480 497 512 441 q 382 555 448 555 "},"5":{"x_min":27.78125,"x_max":793.125,"ha":842,"o":"m 577 887 l 390 898 l 356 682 q 437 690 393 690 q 536 674 481 690 q 645 625 591 658 q 734 529 700 593 q 769 383 769 466 q 656 99 769 198 q 349 0 543 0 q 27 134 155 0 l 120 283 q 350 140 201 140 q 493 203 437 140 q 550 365 550 266 q 486 516 550 463 q 327 568 423 568 q 148 525 230 568 l 236 1055 l 295 1055 q 380 1055 340 1055 q 791 1086 719 1055 q 793 1034 793 1062 q 785 974 793 1007 q 748 920 777 941 q 681 893 719 900 q 577 887 643 887 "},"õ":{"x_min":27.78125,"x_max":708.390625,"ha":722,"o":"m 297 970 q 434 922 358 970 q 543 873 511 873 q 645 968 607 873 l 707 933 q 646 785 694 843 q 533 727 598 727 q 394 779 468 727 q 288 832 319 832 q 236 814 258 832 q 191 750 213 797 l 130 786 q 193 918 148 866 q 297 970 237 970 m 409 668 q 622 586 537 668 q 708 386 708 504 q 603 99 708 206 q 350 -8 498 -8 q 114 76 201 -8 q 27 286 27 161 q 134 563 27 461 q 409 668 243 668 m 382 555 q 272 480 316 555 q 223 291 227 405 q 256 158 223 211 q 355 105 288 105 q 467 179 422 105 q 512 347 512 252 q 480 497 512 441 q 382 555 448 555 "},"7":{"x_min":34.71875,"x_max":808.390625,"ha":828,"o":"m 483 41 q 345 -18 422 -18 q 261 8 304 -18 q 205 100 219 34 q 201 138 201 119 q 204 172 201 158 q 213 205 206 186 q 226 236 220 225 q 242 268 231 247 q 258 300 252 290 l 344 479 l 144 479 l 158 598 l 401 598 l 544 900 l 361 900 q 310 791 356 838 q 193 742 263 743 q 79 782 123 741 q 34 889 34 822 q 86 1007 34 957 q 247 1057 138 1057 l 800 1057 q 808 1003 808 1033 q 784 941 808 973 l 616 598 l 743 598 l 727 479 l 556 479 l 465 291 q 425 145 425 211 q 483 41 425 80 m 158 872 q 188 852 158 852 q 259 900 240 852 q 191 900 225 900 q 158 872 158 900 "},"K":{"x_min":6.9375,"x_max":1079.25,"ha":947,"o":"m 1034 298 l 1079 230 q 1022 104 1058 155 q 945 30 986 52 q 811 -8 875 -8 q 646 56 700 -8 q 590 229 593 120 q 569 447 586 404 q 493 495 552 490 l 502 600 q 541 611 527 604 q 577 638 555 618 q 647 834 625 680 q 721 1004 665 951 q 843 1057 777 1057 q 958 1018 908 1057 q 1008 895 1008 980 q 927 701 1008 783 q 701 552 845 619 q 775 473 751 529 q 801 356 798 418 q 805 238 804 295 q 884 105 811 105 q 1034 298 970 105 m 169 -8 q 51 36 95 -8 q 6 150 6 80 q 252 429 6 312 q 280 661 262 511 q 322 1019 315 969 q 441 1055 379 1055 q 534 1048 502 1055 l 431 263 q 169 -8 390 -8 m 911 863 q 899 895 911 884 q 876 907 887 907 q 859 904 865 907 q 847 895 852 901 q 840 882 843 888 q 834 863 837 876 q 828 842 830 851 q 822 816 826 833 q 811 771 818 800 q 794 713 804 743 q 911 863 911 788 m 109 168 q 156 118 109 118 q 197 143 176 118 q 227 225 219 169 l 238 311 q 109 168 109 236 "},",":{"x_min":138.90625,"x_max":394.46875,"ha":533,"o":"m 161 103 q 193 180 161 147 q 275 213 226 213 q 359 183 323 213 q 394 92 394 152 q 333 -47 394 31 q 213 -175 272 -127 q 202 -176 211 -176 q 169 -168 194 -176 q 138 -154 144 -159 q 252 -9 204 -79 q 187 28 213 -2 q 161 103 161 59 "},"d":{"x_min":41.671875,"x_max":907.015625,"ha":761,"o":"m 576 1001 q 620 1041 586 1025 q 702 1057 654 1057 q 773 1043 750 1057 q 729 702 759 934 q 665 168 665 218 q 707 119 665 119 q 782 164 743 119 q 852 312 820 209 q 907 230 891 275 q 750 16 857 65 q 658 -6 701 -6 q 493 81 534 -6 q 308 -8 420 -8 q 118 68 195 -8 q 41 269 41 144 q 148 559 41 451 q 419 668 255 668 q 427 668 423 668 q 534 651 484 668 l 576 1001 m 440 559 q 299 492 351 559 q 237 291 247 425 q 236 268 236 279 q 268 159 236 200 q 352 119 301 119 q 484 243 440 119 l 520 541 q 440 559 475 559 "},"¨":{"x_min":176.40625,"x_max":709.78125,"ha":833,"o":"m 176 838 q 204 910 176 880 q 275 940 233 940 q 345 910 316 940 q 375 838 375 880 q 345 768 375 797 q 275 738 316 738 q 204 768 233 738 q 176 838 176 797 m 538 910 q 609 940 568 940 q 680 910 651 940 q 709 838 709 880 q 681 768 709 797 q 610 738 652 738 q 538 768 568 738 q 508 838 508 797 q 538 910 508 880 "},"Ô":{"x_min":111.125,"x_max":1284.828125,"ha":1038,"o":"m 655 1361 l 897 1193 q 851 1112 868 1138 l 655 1213 l 459 1112 q 413 1193 443 1138 l 655 1361 m 1284 558 q 1179 496 1252 523 q 1061 469 1105 469 q 997 472 1018 469 q 820 129 962 266 q 489 -8 677 -8 q 206 108 301 -8 q 111 412 111 225 q 148 650 111 534 q 252 857 186 766 q 418 1002 318 947 q 627 1057 518 1057 q 806 1007 736 1057 q 876 870 876 958 q 829 752 876 804 q 701 700 783 700 q 625 721 658 700 q 591 790 591 743 q 602 829 591 812 q 625 850 613 845 l 637 855 q 682 800 637 800 q 718 814 702 800 q 734 847 733 829 q 733 875 736 865 q 722 900 730 886 q 640 934 702 934 q 484 857 558 934 q 367 657 411 779 q 323 406 323 534 q 358 216 323 300 q 415 146 377 172 q 505 120 452 120 q 661 194 593 120 q 763 372 730 268 q 795 583 795 476 l 795 600 q 791 629 791 615 q 838 730 791 695 q 915 752 869 752 q 955 748 927 752 q 994 736 983 744 q 949 716 965 734 q 933 668 933 698 q 961 611 933 637 q 1082 573 1000 573 q 1254 641 1165 573 l 1284 558 "},"E":{"x_min":30.5625,"x_max":907.015625,"ha":668,"o":"m 325 484 q 244 315 244 427 q 295 181 244 244 q 466 119 345 119 q 695 201 587 119 q 859 380 804 283 l 907 295 q 408 -8 727 -8 q 140 77 250 -8 q 30 277 30 162 q 209 569 30 479 q 150 741 150 643 q 261 963 150 870 q 520 1057 373 1057 q 747 982 668 1057 q 827 784 827 907 l 695 784 q 656 897 697 859 q 542 936 615 936 q 411 883 469 936 q 345 750 345 826 q 387 618 345 673 q 598 600 526 634 q 643 534 643 579 q 592 470 643 488 q 470 452 541 452 q 325 484 400 452 "},"Y":{"x_min":34.71875,"x_max":1033.421875,"ha":895,"o":"m 434 893 l 433 869 q 394 547 429 804 q 351 225 351 238 q 377 154 351 183 q 447 126 404 126 q 528 156 491 126 q 584 227 565 186 l 662 937 q 714 1029 669 1001 q 809 1058 759 1058 q 879 1044 843 1058 l 786 275 q 1012 375 969 359 l 1033 277 q 773 162 911 227 l 738 -120 q 702 -249 730 -195 q 633 -330 673 -302 q 472 -380 559 -380 q 328 -317 386 -380 q 270 -165 270 -254 q 329 -4 270 -76 q 206 60 255 8 q 158 188 158 112 q 161 219 158 197 l 205 561 q 34 827 34 669 q 141 1030 34 975 q 256 1058 191 1058 q 377 1017 320 1058 q 434 893 434 976 m 204 945 q 149 913 170 945 q 127 837 127 882 q 219 677 127 740 l 245 877 q 218 944 245 934 q 204 945 212 945 m 376 -147 q 399 -218 376 -193 q 454 -243 422 -243 q 511 -220 486 -243 q 541 -155 536 -197 l 566 62 q 376 -147 376 -41 "},"\"":{"x_min":41.671875,"x_max":558.375,"ha":600,"o":"m 63 988 q 96 1065 63 1032 q 177 1098 129 1098 q 261 1068 226 1098 q 297 977 297 1037 q 236 836 297 916 q 116 709 175 757 q 105 708 113 708 q 72 716 97 708 q 41 730 47 725 q 155 875 106 805 q 90 913 116 882 q 63 988 63 944 m 325 988 q 357 1065 325 1032 q 438 1098 390 1098 q 522 1068 487 1098 q 558 977 558 1037 q 497 836 558 916 q 377 709 436 757 q 366 708 375 708 q 333 716 358 708 q 302 730 308 725 q 416 875 368 805 q 351 913 377 882 q 325 988 325 944 "},"‹":{"x_min":27.78125,"x_max":406.984375,"ha":431,"o":"m 268 0 l 27 331 l 315 672 l 406 672 l 212 331 l 361 0 l 268 0 "},"˙":{"x_min":344.46875,"x_max":486.15625,"ha":833,"o":"m 344 875 l 486 875 l 486 733 l 344 733 l 344 875 "},"ê":{"x_min":36.109375,"x_max":807.015625,"ha":647,"o":"m 409 972 l 651 804 q 605 723 622 750 l 409 825 l 213 723 q 168 804 197 750 l 409 972 m 304 311 q 432 380 390 329 q 475 479 475 431 q 449 545 475 527 q 393 562 423 562 q 278 489 327 562 q 229 316 229 416 q 277 165 229 215 q 395 116 325 116 q 595 188 500 116 q 751 377 691 261 q 807 305 782 348 q 644 101 761 201 q 506 22 586 52 q 341 -8 426 -8 q 122 76 202 -8 q 36 311 36 168 q 143 561 36 454 q 401 668 251 668 q 575 621 508 668 q 643 495 641 575 q 557 322 643 388 q 323 229 472 255 l 304 311 "},"Ï":{"x_min":56.953125,"x_max":773.671875,"ha":671,"o":"m 208 1227 q 236 1299 208 1269 q 306 1329 265 1329 q 377 1299 348 1329 q 406 1227 406 1269 q 377 1157 406 1186 q 306 1127 348 1127 q 236 1157 265 1127 q 208 1227 208 1186 m 570 1299 q 641 1329 600 1329 q 712 1299 683 1329 q 741 1227 741 1269 q 713 1157 741 1186 q 642 1127 684 1127 q 570 1157 600 1127 q 540 1227 540 1186 q 570 1299 540 1269 m 772 900 q 728 909 750 909 q 686 883 707 909 q 659 807 666 857 l 587 291 q 491 70 568 151 q 298 -9 413 -9 q 120 54 183 -9 q 56 209 56 119 q 118 361 56 298 q 275 423 180 423 q 366 415 333 423 l 359 330 q 286 336 336 336 q 199 302 237 336 q 161 219 161 269 q 188 142 161 169 q 255 115 216 115 q 391 287 372 115 q 445 752 429 632 q 298 723 362 723 q 143 770 197 723 q 90 894 90 818 q 145 1014 90 970 q 283 1058 200 1058 q 431 1026 334 1058 q 580 994 527 994 q 738 1043 675 994 q 773 927 773 994 q 772 900 773 913 m 227 857 q 250 820 227 836 q 320 805 273 805 q 441 847 366 805 q 330 875 387 859 q 262 891 273 891 q 227 857 227 891 "},"„":{"x_min":41.671875,"x_max":558.375,"ha":600,"o":"m 63 113 q 96 190 63 156 q 177 223 129 223 q 261 193 226 223 q 297 102 297 162 q 236 -38 297 41 q 116 -165 175 -118 q 105 -166 113 -166 q 72 -158 97 -166 q 41 -144 47 -150 q 155 0 106 -69 q 90 38 116 6 q 63 113 63 69 m 325 113 q 357 190 325 156 q 438 223 390 223 q 522 193 487 223 q 558 102 558 162 q 497 -38 558 41 q 377 -165 436 -118 q 366 -166 375 -166 q 333 -158 358 -166 q 302 -144 308 -150 q 416 0 368 -69 q 351 38 377 6 q 325 113 325 69 "},"Â":{"x_min":47.21875,"x_max":1161.203125,"ha":992,"o":"m 693 1361 l 934 1193 q 888 1112 905 1138 l 693 1213 l 497 1112 q 451 1193 480 1138 l 693 1361 m 844 -2 q 727 47 766 -2 q 673 237 687 98 q 657 425 665 309 q 461 363 559 395 l 413 233 q 394 179 400 195 q 374 131 388 163 q 349 85 359 100 q 320 48 338 70 q 281 16 301 26 q 175 -8 231 -8 q 82 32 118 -8 q 47 133 47 73 q 50 168 47 150 q 323 411 68 301 q 563 1033 395 595 q 676 1058 608 1058 q 705 1058 691 1058 q 739 1058 719 1058 q 790 1050 759 1058 q 854 240 791 984 q 869 159 859 177 q 902 140 879 140 q 1006 193 941 140 q 1122 325 1070 245 l 1161 230 l 1127 186 q 844 -2 982 -2 m 623 816 l 502 479 q 647 527 600 512 l 623 816 m 275 290 q 145 162 145 225 q 179 118 145 118 q 219 154 204 118 q 275 290 237 193 "},"Í":{"x_min":56.953125,"x_max":773.671875,"ha":671,"o":"m 381 1152 l 558 1412 q 623 1359 586 1398 q 684 1286 661 1319 l 434 1101 q 381 1152 418 1111 m 772 900 q 728 909 750 909 q 686 883 707 909 q 659 807 666 857 l 587 291 q 491 70 568 151 q 298 -9 413 -9 q 120 54 183 -9 q 56 209 56 119 q 118 361 56 298 q 275 423 180 423 q 366 415 333 423 l 359 330 q 286 336 336 336 q 199 302 237 336 q 161 219 161 269 q 188 142 161 169 q 255 115 216 115 q 391 287 372 115 q 445 752 429 632 q 298 723 362 723 q 143 770 197 723 q 90 894 90 818 q 145 1014 90 970 q 283 1058 200 1058 q 431 1026 334 1058 q 580 994 527 994 q 738 1043 675 994 q 773 927 773 994 q 772 900 773 913 m 227 857 q 250 820 227 836 q 320 805 273 805 q 441 847 366 805 q 330 875 387 859 q 262 891 273 891 q 227 857 227 891 "},"´":{"x_min":72.234375,"x_max":375.03125,"ha":331,"o":"m 72 763 l 248 1023 q 313 970 276 1009 q 375 897 351 930 l 125 712 q 72 763 108 722 "},"ì":{"x_min":36.109375,"x_max":479.203125,"ha":319,"o":"m 162 1023 l 338 763 q 286 712 302 722 l 36 897 q 97 970 59 930 q 162 1023 134 1009 m 93 615 q 145 653 106 640 q 222 666 184 666 q 290 657 261 666 q 236 234 236 238 q 229 188 229 206 q 230 155 229 169 q 282 119 237 119 q 366 178 327 119 q 423 312 404 237 q 454 279 433 306 q 479 237 475 251 q 386 58 451 126 q 225 -9 318 -9 q 86 36 131 -9 q 41 154 41 81 q 43 186 41 169 l 93 615 "},"±":{"x_min":-19.453125,"x_max":677.828125,"ha":686,"o":"m 398 544 l 365 248 l 237 248 l 272 544 l 8 544 l 22 663 l 286 663 l 319 955 l 445 955 l 412 663 l 677 663 l 663 544 l 398 544 m 636 0 l -19 0 l -5 119 l 650 119 l 636 0 "},"Ú":{"x_min":0,"x_max":1030.640625,"ha":836,"o":"m 380 1152 l 556 1412 q 622 1359 584 1398 q 683 1286 659 1319 l 433 1101 q 380 1152 416 1111 m 612 1025 q 666 1046 620 1036 q 751 1057 711 1057 q 818 1045 791 1057 q 716 206 716 234 q 734 157 716 179 q 784 136 751 136 q 948 387 876 136 q 950 394 948 390 q 951 400 951 398 q 1030 351 1012 361 q 916 84 984 176 q 741 -8 848 -8 q 597 93 634 -8 l 593 93 q 497 15 550 38 q 365 -8 444 -8 q 164 59 234 -8 q 94 254 94 127 q 98 312 94 280 l 137 637 q 0 866 0 734 q 52 1005 0 954 q 187 1057 105 1057 q 358 876 358 1057 q 354 811 358 847 l 283 268 q 281 238 281 258 q 306 151 281 184 q 383 118 331 118 q 529 309 506 118 l 612 1025 m 136 929 q 88 871 88 929 q 152 758 88 813 l 156 794 q 166 884 165 866 q 136 929 166 929 "},"|":{"x_min":34.71875,"x_max":290.296875,"ha":351,"o":"m 170 1057 l 290 1057 l 148 -138 l 34 -138 l 170 1057 "},"§":{"x_min":45.84375,"x_max":818.125,"ha":863,"o":"m 558 -2 q 612 -186 612 -98 q 531 -387 612 -309 q 322 -465 450 -465 q 122 -400 194 -465 q 45 -215 45 -329 q 62 -113 45 -166 l 181 -113 q 168 -195 166 -144 q 202 -289 169 -247 q 290 -331 236 -331 q 377 -305 344 -331 q 409 -233 409 -279 q 386 -152 409 -187 q 248 29 363 -116 q 102 340 106 204 q 162 516 101 441 q 323 613 223 590 q 288 672 298 654 q 252 813 252 737 q 337 989 252 920 q 544 1058 422 1058 q 741 1001 666 1058 q 818 833 818 941 q 787 713 818 779 l 666 713 q 676 734 668 718 q 688 758 684 750 q 699 832 700 783 q 659 909 698 880 q 570 938 620 938 q 487 908 520 938 q 454 833 454 877 q 479 750 454 788 q 538 675 505 712 q 598 608 572 637 q 631 571 625 579 q 660 537 637 563 q 690 500 683 511 q 715 464 697 488 q 740 426 733 440 q 759 389 747 412 q 777 350 772 366 q 791 256 791 295 q 724 84 791 152 q 558 -2 657 15 m 397 512 q 329 476 355 505 q 304 400 304 447 q 327 312 304 354 q 441 172 359 256 q 476 130 465 145 q 552 158 520 131 q 584 222 584 184 q 563 300 584 261 q 522 364 543 338 q 457 441 501 390 q 397 512 413 491 "},"Ý":{"x_min":34.71875,"x_max":1033.421875,"ha":895,"o":"m 465 1152 l 641 1412 q 707 1359 669 1398 q 768 1286 744 1319 l 518 1101 q 465 1152 501 1111 m 434 893 l 433 869 q 394 547 429 804 q 351 225 351 238 q 377 154 351 183 q 447 126 404 126 q 528 156 491 126 q 584 227 565 186 l 662 937 q 714 1029 669 1001 q 809 1058 759 1058 q 879 1044 843 1058 l 786 275 q 1012 375 969 359 l 1033 277 q 773 162 911 227 l 738 -120 q 702 -249 730 -195 q 633 -330 673 -302 q 472 -380 559 -380 q 328 -317 386 -380 q 270 -165 270 -254 q 329 -4 270 -76 q 206 60 255 8 q 158 188 158 112 q 161 219 158 197 l 205 561 q 34 827 34 669 q 141 1030 34 975 q 256 1058 191 1058 q 377 1017 320 1058 q 434 893 434 976 m 204 945 q 149 913 170 945 q 127 837 127 882 q 219 677 127 740 l 245 877 q 218 944 245 934 q 204 945 212 945 m 376 -147 q 399 -218 376 -193 q 454 -243 422 -243 q 511 -220 486 -243 q 541 -155 536 -197 l 566 62 q 376 -147 376 -41 "},"b":{"x_min":50,"x_max":697.28125,"ha":711,"o":"m 453 669 q 625 587 552 669 q 697 395 697 505 q 695 363 697 380 q 573 86 680 181 q 294 -8 466 -8 q 173 16 225 -5 q 97 72 122 38 q 50 181 50 133 q 63 336 50 229 q 147 1045 93 555 q 225 1057 176 1057 q 336 993 336 1057 l 288 623 q 453 669 354 669 m 237 190 q 261 136 237 158 q 329 115 286 115 q 445 180 400 115 q 501 386 501 259 q 473 494 501 447 q 387 541 445 541 q 266 447 308 541 l 255 363 q 237 190 237 223 "},"q":{"x_min":27.78125,"x_max":934.796875,"ha":796,"o":"m 434 37 q 276 -8 370 -8 q 104 68 181 -8 q 27 269 27 144 q 134 559 27 451 q 405 668 241 668 q 413 668 409 668 q 541 644 481 668 q 632 668 586 668 q 702 654 679 668 q 643 175 648 220 l 636 118 q 690 119 672 118 q 800 174 747 123 q 882 326 852 225 q 934 245 926 270 q 834 71 900 131 q 693 -2 768 11 q 787 -213 787 -113 q 787 -222 787 -218 q 768 -318 787 -276 q 718 -381 750 -361 q 598 -422 657 -422 q 444 -358 495 -422 q 405 -226 405 -306 q 408 -180 405 -204 l 434 37 m 426 559 q 285 492 337 559 q 223 291 233 425 q 222 268 222 279 q 254 159 222 200 q 338 119 287 119 q 461 218 416 119 l 498 545 q 426 559 461 559 m 615 -31 q 593 -235 593 -208 q 609 -278 593 -262 q 649 -294 626 -294 q 690 -275 672 -294 q 708 -220 708 -256 q 615 -31 708 -125 "},"Ö":{"x_min":111.125,"x_max":1284.828125,"ha":1038,"o":"m 386 1227 q 414 1299 386 1269 q 484 1329 443 1329 q 555 1299 526 1329 q 584 1227 584 1269 q 555 1157 584 1186 q 484 1127 526 1127 q 414 1157 443 1127 q 386 1227 386 1186 m 747 1299 q 819 1329 777 1329 q 890 1299 861 1329 q 919 1227 919 1269 q 891 1157 919 1186 q 820 1127 862 1127 q 747 1157 777 1127 q 718 1227 718 1186 q 747 1299 718 1269 m 1284 558 q 1179 496 1252 523 q 1061 469 1105 469 q 997 472 1018 469 q 820 129 962 266 q 489 -8 677 -8 q 206 108 301 -8 q 111 412 111 225 q 148 650 111 534 q 252 857 186 766 q 418 1002 318 947 q 627 1057 518 1057 q 806 1007 736 1057 q 876 870 876 958 q 829 752 876 804 q 701 700 783 700 q 625 721 658 700 q 591 790 591 743 q 602 829 591 812 q 625 850 613 845 l 637 855 q 682 800 637 800 q 718 814 702 800 q 734 847 733 829 q 733 875 736 865 q 722 900 730 886 q 640 934 702 934 q 484 857 558 934 q 367 657 411 779 q 323 406 323 534 q 358 216 323 300 q 415 146 377 172 q 505 120 452 120 q 661 194 593 120 q 763 372 730 268 q 795 583 795 476 l 795 600 q 791 629 791 615 q 838 730 791 695 q 915 752 869 752 q 955 748 927 752 q 994 736 983 744 q 949 716 965 734 q 933 668 933 698 q 961 611 933 637 q 1082 573 1000 573 q 1254 641 1165 573 l 1284 558 "},"ﬂ":{"x_min":22.21875,"x_max":1144.53125,"ha":985,"o":"m 420 -1 q 497 -224 497 -136 q 443 -367 497 -312 q 304 -422 390 -422 q 163 -374 218 -422 q 108 -241 108 -326 q 113 -175 108 -225 l 156 200 q 22 375 75 309 q 101 440 69 440 q 129 425 116 440 q 175 368 143 409 l 227 834 q 272 983 238 926 q 436 1057 316 1057 q 565 1010 520 1057 q 609 882 609 963 q 538 665 609 772 q 372 477 466 558 l 337 143 q 404 116 361 116 q 626 330 541 116 l 684 829 q 788 1036 704 993 q 882 1057 827 1057 q 1065 887 1065 1057 q 1063 858 1065 873 q 830 479 1050 672 q 816 347 823 411 q 798 188 798 204 q 861 116 798 116 q 988 195 929 116 q 1079 395 1047 273 q 1113 372 1091 391 q 1144 340 1136 354 q 1044 119 1122 225 q 945 30 1005 65 q 802 -9 877 -9 q 615 119 641 -9 q 420 -1 536 20 m 486 936 q 472 937 479 937 q 422 888 434 937 q 391 665 409 840 l 386 612 q 482 742 445 673 q 519 867 519 811 q 486 936 519 923 m 845 618 q 973 869 973 758 q 923 936 973 936 q 881 894 891 933 q 863 781 870 855 q 855 700 855 707 q 850 659 852 679 l 845 618 m 300 -211 q 298 -240 298 -218 q 312 -279 298 -263 q 349 -294 326 -294 q 390 -275 372 -294 q 408 -218 408 -256 q 320 -16 408 -144 l 300 -211 "},"z":{"x_min":27.78125,"x_max":595.875,"ha":607,"o":"m 431 -12 l 45 -4 q 27 45 27 -4 q 48 122 27 94 q 163 284 69 177 q 277 409 194 319 q 387 533 361 500 l 313 537 q 253 456 293 487 q 165 425 213 425 q 75 457 109 425 q 40 548 40 490 q 80 641 40 607 q 191 676 120 676 l 577 668 q 595 620 595 668 q 577 545 595 572 q 529 481 561 515 q 438 391 498 447 q 355 311 379 334 q 216 131 262 218 l 309 126 q 370 207 330 176 q 458 238 409 238 q 548 206 513 238 q 583 115 583 173 q 543 22 583 56 q 431 -12 502 -12 m 180 547 q 131 515 131 547 q 168 483 131 483 q 254 541 222 483 l 197 545 q 180 547 188 547 m 443 116 q 491 148 491 116 q 455 180 491 180 q 369 122 401 180 l 426 118 q 443 116 434 116 "},"™":{"x_min":0,"x_max":1855.703125,"ha":1686,"o":"m 1477 1047 q 1559 1058 1507 1058 q 1654 1051 1612 1058 q 1586 472 1611 732 q 1560 200 1562 213 q 1558 175 1558 186 q 1593 138 1559 138 q 1825 330 1676 138 q 1855 231 1851 256 q 1695 59 1789 126 q 1518 -8 1601 -8 q 1402 34 1434 -8 q 1370 130 1370 77 q 1374 179 1370 143 q 1429 629 1377 215 l 1201 102 l 1083 102 l 1015 620 l 918 190 q 841 38 894 87 q 723 -9 787 -9 q 619 27 659 -9 q 576 141 576 68 q 804 393 576 288 q 937 1050 927 986 q 1027 1058 970 1058 q 1104 1055 1083 1058 l 1113 1055 l 1200 409 l 1477 1040 l 1477 1047 m 361 891 q 275 786 331 827 q 151 744 218 744 q 42 783 84 744 q 0 898 0 822 q 68 1016 0 975 q 227 1057 136 1057 l 779 1057 q 783 1019 783 1037 q 752 932 783 972 q 659 891 722 891 q 655 891 657 891 l 361 891 m 180 891 q 129 855 129 891 q 173 826 129 826 q 222 844 194 826 q 270 891 251 862 l 180 891 m 222 -5 q 102 40 147 -5 q 56 155 56 86 q 304 433 56 318 l 352 802 q 484 838 409 838 q 551 832 519 838 l 468 266 q 222 -5 433 -5 m 159 170 q 208 120 159 120 q 277 227 263 120 l 288 315 q 159 170 159 240 m 675 165 q 709 120 675 120 q 748 158 733 120 q 780 279 768 204 q 675 165 675 219 "},"ã":{"x_min":41.671875,"x_max":907.015625,"ha":761,"o":"m 780 933 q 720 785 768 843 q 606 727 672 727 q 469 779 541 727 q 362 832 393 832 q 309 814 331 832 q 265 750 287 797 l 204 786 q 266 918 222 866 q 375 970 311 970 q 508 922 431 970 q 616 873 584 873 q 719 968 680 873 l 780 933 m 663 -6 q 494 81 536 -6 q 309 -8 422 -8 q 118 68 195 -8 q 41 269 41 144 q 148 559 41 451 q 419 668 255 668 q 427 668 423 668 q 555 644 497 668 q 646 668 593 668 q 723 654 700 668 q 697 452 711 551 q 677 311 683 352 q 665 175 665 216 q 709 119 665 119 q 783 165 744 119 q 851 312 822 212 q 907 231 891 276 q 798 46 866 100 q 663 -6 730 -6 m 440 559 q 299 492 351 559 q 237 291 247 425 q 236 268 236 279 q 268 159 236 200 q 352 119 301 119 q 484 243 440 119 l 518 543 q 440 559 477 559 "},"æ":{"x_min":55.5625,"x_max":1277.875,"ha":1408,"o":"m 775 311 q 903 380 861 329 q 945 479 945 431 q 920 545 945 527 q 863 562 894 562 q 749 489 798 562 q 700 316 700 416 q 747 165 700 215 q 866 116 795 116 q 1066 188 970 116 q 1222 377 1162 261 q 1277 305 1252 348 q 1113 101 1232 201 q 977 22 1057 52 q 812 -8 897 -8 q 545 141 626 -8 q 312 -8 469 -8 q 132 68 209 -8 q 55 269 55 144 q 162 559 55 451 q 433 668 269 668 q 441 668 437 668 q 569 644 511 668 q 660 668 607 668 q 737 654 713 668 l 736 641 q 872 668 804 668 q 1045 621 979 668 q 1113 495 1112 575 q 1028 322 1113 388 q 794 229 943 255 l 775 311 m 454 559 q 313 492 365 559 q 251 291 261 425 q 250 268 250 279 q 282 159 250 200 q 366 119 315 119 q 498 243 454 119 l 506 315 q 512 372 506 336 l 531 543 q 454 559 491 559 "},"®":{"x_min":41.671875,"x_max":944.515625,"ha":986,"o":"m 41 479 q 167 800 41 668 q 492 932 293 932 q 818 800 691 932 q 944 481 944 669 q 818 161 944 293 q 491 29 691 29 q 166 159 291 29 q 41 479 41 290 m 238 226 q 491 123 341 123 q 745 226 641 123 q 850 479 850 329 q 745 733 850 629 q 491 837 641 837 q 238 733 341 837 q 136 479 136 629 q 238 226 136 329 m 635 218 q 556 255 581 218 q 520 366 530 293 q 504 456 511 438 l 472 448 l 463 376 q 413 253 452 288 q 329 218 375 218 q 261 248 284 218 q 237 312 237 279 q 366 461 237 400 q 386 632 384 619 q 444 648 411 648 q 497 643 477 648 l 479 501 l 481 502 q 593 615 593 538 q 559 677 593 654 q 460 701 525 701 q 354 675 395 701 q 312 609 312 650 q 329 577 312 591 q 361 562 345 563 l 355 523 q 352 523 354 523 q 240 615 240 523 q 306 729 240 682 q 477 779 377 779 q 648 736 576 779 q 720 609 720 693 q 693 531 720 569 q 618 475 665 494 q 636 402 630 450 q 651 326 643 355 q 682 297 659 297 q 755 393 723 297 l 790 379 q 730 258 770 295 q 635 218 688 218 m 358 397 q 291 329 291 355 q 315 304 291 304 q 354 356 347 304 l 358 397 "},"É":{"x_min":30.5625,"x_max":907.015625,"ha":668,"o":"m 448 1152 l 625 1412 q 690 1359 652 1398 q 751 1286 727 1319 l 501 1101 q 448 1152 484 1111 m 325 484 q 244 315 244 427 q 295 181 244 244 q 466 119 345 119 q 695 201 587 119 q 859 380 804 283 l 907 295 q 408 -8 727 -8 q 140 77 250 -8 q 30 277 30 162 q 209 569 30 479 q 150 741 150 643 q 261 963 150 870 q 520 1057 373 1057 q 747 982 668 1057 q 827 784 827 907 l 695 784 q 656 897 697 859 q 542 936 615 936 q 411 883 469 936 q 345 750 345 826 q 387 618 345 673 q 598 600 526 634 q 643 534 643 579 q 592 470 643 488 q 470 452 541 452 q 325 484 400 452 "},"~":{"x_min":-36.109375,"x_max":644.5,"ha":590,"o":"m 137 682 q 180 676 150 682 q 323 619 211 670 q 472 568 436 568 q 583 666 544 568 l 644 666 q 575 488 630 545 q 450 431 519 431 q 269 486 380 431 q 122 540 155 540 q 59 522 88 540 q 25 462 29 505 l -36 462 q 23 627 -30 572 q 137 682 77 682 "},"³":{"x_min":61.109375,"x_max":481.984375,"ha":554,"o":"m 347 586 q 233 666 347 666 l 198 666 l 205 732 q 272 735 240 732 q 325 757 305 738 q 350 820 344 776 q 335 879 351 855 q 288 904 319 904 q 216 838 225 904 q 220 797 213 823 l 109 797 q 106 833 106 816 q 143 913 106 880 q 292 972 205 972 q 423 933 379 972 q 468 833 468 894 q 394 709 468 755 q 459 666 436 694 q 481 602 481 637 q 411 468 481 513 q 276 430 354 430 q 61 543 130 430 l 173 607 q 200 527 175 554 q 263 500 226 500 q 324 524 301 500 q 347 586 347 548 "},"¡":{"x_min":-69.0625,"x_max":326.8125,"ha":367,"o":"m 294 502 q 214 469 261 469 q 133 502 167 469 q 100 583 100 536 q 133 663 100 630 q 214 695 167 695 q 294 663 261 695 q 326 583 326 630 q 294 502 326 536 m 164 -484 q 67 -498 136 -498 q -69 -434 -69 -498 q -67 -422 -69 -429 l 104 305 l 253 305 l 164 -484 "},"[":{"x_min":25,"x_max":591.71875,"ha":620,"o":"m 26 -173 l 26 -170 l 25 -170 l 186 1054 l 186 1055 l 591 1055 l 576 951 l 286 951 l 154 -69 l 447 -69 l 434 -173 l 26 -173 "},"L":{"x_min":0,"x_max":790.34375,"ha":645,"o":"m 537 120 q 571 115 552 115 q 607 119 590 115 q 639 139 625 123 q 662 165 654 155 q 683 208 670 175 q 720 318 698 247 q 790 236 779 263 q 555 -8 723 -8 q 354 94 476 -8 q 155 -8 290 -8 q 47 31 95 -8 q 0 147 0 72 q 50 270 0 222 q 179 318 100 318 q 222 315 194 318 l 241 491 q 52 441 180 472 l 52 545 q 252 598 156 569 l 280 825 q 516 1057 309 1057 q 647 1011 598 1057 q 697 884 697 966 q 443 566 697 687 l 401 238 l 400 225 q 537 120 502 133 m 593 873 q 544 932 593 932 q 470 794 486 932 l 456 684 q 593 873 593 765 m 105 156 q 152 115 105 115 q 209 197 198 115 q 160 208 183 208 q 121 193 137 208 q 105 156 105 177 "}," ":{"x_min":0,"x_max":0,"ha":306},"∑":{"x_min":-70.84375,"x_max":866.734375,"ha":833,"o":"m 476 402 l 477 402 l 476 401 l 477 400 l 476 400 l 102 -55 l 734 -55 l 711 -175 l -70 -175 l -44 -55 l 330 401 l 62 882 l 87 1000 l 866 1000 l 843 880 l 209 880 l 476 402 "},"%":{"x_min":27.78125,"x_max":1152.875,"ha":1192,"o":"m 27 702 l 29 736 q 117 972 44 887 q 309 1057 190 1057 q 464 986 405 1057 q 523 779 523 915 l 522 733 q 434 511 505 597 q 258 426 362 426 q 85 504 143 426 q 27 702 27 581 m 888 1057 l 1004 1057 l 229 -138 l 113 -138 l 888 1057 m 156 716 q 155 683 155 708 q 158 631 155 658 q 169 572 161 604 q 255 504 184 504 q 346 568 308 504 q 394 759 384 633 q 397 790 397 779 q 305 979 397 977 q 205 909 245 979 q 156 716 165 840 m 657 277 l 658 309 q 747 545 675 461 q 941 630 820 630 q 1095 559 1037 630 q 1152 354 1152 488 l 1151 306 q 1066 84 1137 170 q 891 -1 994 -1 q 872 0 882 -1 q 713 80 769 5 q 657 277 657 155 m 784 268 q 876 76 784 80 q 883 76 879 76 q 976 141 937 76 q 1023 331 1015 206 q 1027 363 1027 361 q 934 551 1027 550 q 835 482 875 551 q 786 290 795 413 q 784 268 784 280 "},"P":{"x_min":26.390625,"x_max":897.296875,"ha":860,"o":"m 26 757 q 144 973 26 890 q 459 1057 262 1057 q 666 1029 577 1057 q 802 955 755 1002 q 897 741 897 862 q 800 539 897 620 q 554 458 704 458 q 504 461 537 458 l 516 562 q 701 736 701 562 q 633 872 701 816 q 422 930 562 930 q 200 858 281 930 q 151 768 151 816 q 261 663 151 676 l 244 561 q 87 622 148 565 q 26 757 26 679 m 515 858 l 454 461 q 630 211 630 376 q 567 40 630 90 q 415 -8 504 -8 q 276 37 326 -8 q 226 161 226 83 q 227 188 226 179 l 311 832 q 433 866 383 866 q 515 858 483 866 m 455 118 q 513 141 488 118 q 537 220 537 165 q 443 376 537 319 q 420 181 420 213 q 431 133 420 148 q 455 118 441 118 "},"∏":{"x_min":5.5625,"x_max":883.40625,"ha":833,"o":"m 629 -137 l 513 -137 l 634 937 l 290 937 l 169 -137 l 54 -137 l 175 937 l 5 937 l 22 1057 l 883 1057 l 868 937 l 750 937 l 629 -137 "},"À":{"x_min":47.21875,"x_max":1161.203125,"ha":992,"o":"m 651 1412 l 827 1152 q 775 1101 791 1111 l 525 1286 q 586 1359 548 1319 q 651 1412 623 1398 m 844 -2 q 727 47 766 -2 q 673 237 687 98 q 657 425 665 309 q 461 363 559 395 l 413 233 q 394 179 400 195 q 374 131 388 163 q 349 85 359 100 q 320 48 338 70 q 281 16 301 26 q 175 -8 231 -8 q 82 32 118 -8 q 47 133 47 73 q 50 168 47 150 q 323 411 68 301 q 563 1033 395 595 q 676 1058 608 1058 q 705 1058 691 1058 q 739 1058 719 1058 q 790 1050 759 1058 q 854 240 791 984 q 869 159 859 177 q 902 140 879 140 q 1006 193 941 140 q 1122 325 1070 245 l 1161 230 l 1127 186 q 844 -2 982 -2 m 623 816 l 502 479 q 647 527 600 512 l 623 816 m 275 290 q 145 162 145 225 q 179 118 145 118 q 219 154 204 118 q 275 290 237 193 "},"_":{"x_min":0,"x_max":777.84375,"ha":778,"o":"m 13 -1 l 777 -1 l 762 -120 l 0 -120 l 13 -1 "},"ñ":{"x_min":34.71875,"x_max":866.734375,"ha":721,"o":"m 324 970 q 461 922 384 970 q 569 873 537 873 q 672 968 633 873 l 733 933 q 672 785 720 843 q 559 727 625 727 q 422 779 494 727 q 315 832 345 832 q 262 814 284 832 q 218 750 240 797 l 156 786 q 219 918 175 866 q 324 970 263 970 m 441 155 l 475 465 q 455 527 475 502 q 391 552 436 552 q 314 513 345 552 q 275 413 283 473 q 222 0 225 33 l 34 0 l 111 654 q 200 669 169 669 q 297 601 293 669 q 460 668 365 668 q 609 620 555 668 q 663 501 663 573 q 655 427 663 481 q 623 181 623 216 q 666 118 623 118 q 809 315 761 118 q 866 236 857 265 q 611 -8 793 -8 q 483 44 525 -8 q 441 155 441 97 "},"+":{"x_min":-19.453125,"x_max":650.046875,"ha":614,"o":"m 337 165 l 209 165 l 244 461 l -19 461 l -5 580 l 258 580 l 291 872 l 418 872 l 384 580 l 650 580 l 636 461 l 370 461 l 337 165 "},"‚":{"x_min":2.78125,"x_max":258.359375,"ha":249,"o":"m 25 103 q 57 180 25 147 q 138 213 90 213 q 222 183 187 213 q 258 92 258 152 q 197 -47 258 31 q 77 -175 136 -127 q 66 -176 75 -176 q 33 -168 58 -176 q 2 -154 8 -159 q 116 -9 68 -79 q 51 28 77 -2 q 25 103 25 59 "},"½":{"x_min":69.453125,"x_max":1068.140625,"ha":1111,"o":"m 1008 1057 l 233 -138 l 118 -138 l 893 1057 l 1008 1057 m 426 506 q 418 430 418 448 l 69 430 l 79 506 l 193 506 l 229 833 l 106 822 l 116 887 q 277 972 252 922 l 366 972 l 313 506 l 426 506 m 1063 158 l 1068 101 q 1034 9 1068 47 q 954 -27 1001 -27 q 845 -8 907 -27 q 753 11 784 11 q 688 -13 722 11 l 661 51 q 719 116 665 70 q 853 243 820 202 q 897 312 886 283 q 912 387 912 351 q 893 442 912 423 q 847 462 875 461 q 786 395 788 459 q 788 341 786 355 l 677 341 l 677 388 q 736 493 679 458 q 867 527 794 527 q 991 489 940 527 q 1043 371 1043 451 q 945 190 1043 291 q 834 98 894 138 q 950 81 920 81 q 995 100 980 81 q 1020 158 1009 118 l 1063 158 "},"Æ":{"x_min":48.609375,"x_max":1525.125,"ha":1661,"o":"m 943 484 q 862 315 862 427 q 913 181 862 244 q 1084 119 963 119 q 1314 201 1205 119 q 1477 380 1422 283 l 1525 295 q 1026 -8 1345 -8 q 758 77 868 -8 q 648 277 648 162 q 662 379 648 336 l 658 425 q 462 363 561 395 l 415 233 q 395 179 401 195 q 375 131 390 163 q 350 85 361 100 q 321 48 340 70 q 283 16 302 26 q 176 -8 233 -8 q 84 32 119 -8 q 48 133 48 73 q 51 168 48 150 q 325 411 69 301 q 565 1033 397 595 q 682 1058 611 1058 l 723 1055 q 750 1050 730 1055 q 769 766 752 957 q 892 973 780 890 q 1145 1057 1004 1057 q 1366 982 1286 1057 q 1445 784 1445 907 l 1314 784 q 1274 897 1315 859 q 1160 936 1233 936 q 1029 883 1087 936 q 963 750 963 826 q 1005 618 963 673 q 1216 600 1144 634 q 1261 534 1261 579 q 1210 470 1261 488 q 1088 452 1159 452 q 943 484 1018 452 m 625 816 l 504 479 q 650 527 601 512 l 625 816 m 776 668 l 787 545 q 809 558 794 550 q 827 569 823 566 q 776 668 793 613 m 147 162 q 180 118 147 118 q 220 154 205 118 q 276 290 238 193 q 147 162 147 225 "},"Ë":{"x_min":30.5625,"x_max":907.015625,"ha":668,"o":"m 275 1227 q 303 1299 275 1269 q 373 1329 331 1329 q 444 1299 415 1329 q 473 1227 473 1269 q 444 1157 473 1186 q 373 1127 415 1127 q 303 1157 331 1127 q 275 1227 275 1186 m 636 1299 q 708 1329 666 1329 q 779 1299 750 1329 q 808 1227 808 1269 q 779 1157 808 1186 q 709 1127 751 1127 q 636 1157 666 1127 q 607 1227 607 1186 q 636 1299 607 1269 m 325 484 q 244 315 244 427 q 295 181 244 244 q 466 119 345 119 q 695 201 587 119 q 859 380 804 283 l 907 295 q 408 -8 727 -8 q 140 77 250 -8 q 30 277 30 162 q 209 569 30 479 q 150 741 150 643 q 261 963 150 870 q 520 1057 373 1057 q 747 982 668 1057 q 827 784 827 907 l 695 784 q 656 897 697 859 q 542 936 615 936 q 411 883 469 936 q 345 750 345 826 q 387 618 345 673 q 598 600 526 634 q 643 534 643 579 q 592 470 643 488 q 470 452 541 452 q 325 484 400 452 "},"'":{"x_min":320.859375,"x_max":497.265625,"ha":833,"o":"m 320 1104 q 333 1112 320 1112 l 486 1112 q 497 1107 497 1112 q 495 1090 497 1101 l 455 720 q 441 709 454 709 l 350 709 q 343 743 345 709 q 330 926 340 777 l 320 1104 "},"Š":{"x_min":55.5625,"x_max":727.84375,"ha":678,"o":"m 263 1361 l 375 1361 l 495 1245 l 616 1361 l 727 1361 l 562 1141 l 415 1141 l 263 1361 m 580 700 q 622 816 622 762 q 591 902 622 870 q 511 934 561 934 q 430 910 461 934 q 400 834 400 886 q 472 647 400 782 q 563 473 544 512 q 616 269 616 368 q 527 68 616 145 q 315 -8 437 -8 q 125 67 194 -8 q 55 244 55 143 q 287 554 55 431 q 193 813 193 740 q 275 988 193 916 q 478 1059 358 1059 q 662 998 598 1059 q 726 843 726 937 q 684 700 726 780 l 580 700 m 216 158 q 307 118 254 118 q 391 149 361 118 q 420 241 420 180 q 377 377 420 297 q 356 418 372 388 q 334 461 341 448 q 179 258 179 380 q 216 158 179 195 "},"ª":{"x_min":97.234375,"x_max":501.421875,"ha":578,"o":"m 388 655 q 308 697 327 655 q 222 655 275 655 q 133 691 169 655 q 97 784 97 727 q 147 921 97 870 q 275 972 197 972 q 337 961 309 972 q 379 972 355 972 q 418 965 404 972 q 390 734 390 754 q 408 715 390 715 q 475 807 451 715 q 501 766 495 788 q 451 680 483 705 q 388 655 419 655 m 283 920 q 190 780 190 920 q 204 734 190 752 q 243 715 219 715 q 306 779 286 715 l 320 912 q 283 920 298 920 "},"Œ":{"x_min":111.125,"x_max":1761.25,"ha":1706,"o":"m 1179 484 q 1098 315 1098 427 q 1149 181 1098 244 q 1320 119 1200 119 q 1550 201 1441 119 q 1714 380 1658 283 l 1761 295 q 1262 -8 1582 -8 q 999 73 1108 -8 q 884 268 890 155 q 722 66 826 141 q 480 -8 619 -8 q 206 108 301 -8 q 111 412 111 225 q 148 650 111 534 q 252 857 186 766 q 418 1002 318 947 q 627 1057 518 1057 q 806 1007 736 1057 q 876 876 876 958 q 822 744 876 794 q 866 752 845 752 q 914 748 887 752 q 952 736 941 744 q 907 716 923 734 q 891 668 891 698 q 919 611 891 637 q 1029 575 958 575 l 1058 576 q 1004 741 1004 648 q 1116 963 1004 870 q 1375 1057 1227 1057 q 1602 982 1522 1057 q 1682 784 1682 907 l 1550 784 q 1510 897 1551 859 q 1396 936 1469 936 q 1265 883 1323 936 q 1200 750 1200 826 q 1241 618 1200 673 q 1452 600 1380 634 q 1497 534 1497 579 q 1446 470 1497 488 q 1325 452 1395 452 q 1179 484 1254 452 m 505 120 q 703 247 625 120 q 794 536 782 373 q 750 630 750 577 q 780 716 750 682 q 702 700 747 700 q 625 721 658 700 q 591 790 591 743 q 602 829 591 812 q 625 850 613 845 l 637 855 q 682 800 637 800 q 718 814 702 800 q 734 847 733 829 q 733 875 736 865 q 722 900 730 886 q 640 934 702 934 q 484 857 558 934 q 367 657 411 779 q 323 406 323 534 q 358 216 323 300 q 415 146 377 172 q 505 120 452 120 m 943 473 l 943 469 l 944 472 l 943 473 "},"˛":{"x_min":261.125,"x_max":561.15625,"ha":833,"o":"m 561 -301 q 432 -345 508 -345 q 309 -301 356 -345 q 261 -181 261 -256 q 300 -58 261 -109 q 400 12 340 -6 l 531 12 q 434 -39 487 12 q 381 -156 381 -91 q 462 -259 381 -251 q 488 -259 469 -259 q 541 -241 508 -259 l 561 -301 "},"ð":{"x_min":41.671875,"x_max":907.015625,"ha":833,"o":"m 900 559 l 711 559 q 665 175 665 208 q 707 119 665 119 q 782 164 743 119 q 852 312 820 209 q 907 230 891 275 q 750 16 857 65 q 658 -6 701 -6 q 493 81 534 -6 q 308 -8 420 -8 q 118 68 195 -8 q 41 269 41 144 q 136 547 41 440 q 386 666 231 654 l 386 668 l 427 668 q 444 666 438 668 l 536 666 l 576 1001 q 620 1041 586 1025 q 702 1057 654 1057 q 773 1043 750 1057 l 725 666 l 900 666 l 900 559 m 440 559 q 299 492 351 559 q 237 291 247 425 q 236 268 236 279 q 268 159 236 200 q 352 119 301 119 q 484 243 440 119 l 520 541 q 440 559 475 559 "},"T":{"x_min":0,"x_max":783.390625,"ha":561,"o":"m 361 891 q 275 786 331 827 q 151 744 218 744 q 42 783 84 744 q 0 898 0 822 q 68 1016 0 975 q 227 1057 136 1057 l 779 1057 q 783 1019 783 1037 q 752 932 783 972 q 659 891 722 891 q 655 891 657 891 l 361 891 m 180 891 q 129 855 129 891 q 173 826 129 826 q 222 844 194 826 q 270 891 251 862 l 180 891 m 468 266 q 222 -5 433 -5 q 102 40 147 -5 q 56 155 56 86 q 304 433 56 318 l 352 802 q 484 838 409 838 q 551 832 519 838 l 468 266 m 288 315 q 159 170 159 240 q 208 120 159 120 q 277 227 263 120 l 288 315 "},"š":{"x_min":-62.109375,"x_max":735.171875,"ha":715,"o":"m 107 1020 l 218 1020 l 339 905 l 460 1020 l 571 1020 l 405 801 l 258 801 l 107 1020 m 625 425 q 735 234 735 344 q 649 58 735 125 q 432 -8 562 -8 q 291 34 347 -8 q 235 138 235 76 q 276 238 235 201 q 380 283 318 275 q 351 203 351 241 q 378 141 351 165 q 444 118 404 118 q 511 147 485 118 q 537 216 537 177 q 478 330 537 280 q 400 385 442 359 q 355 412 358 411 q 344 419 350 416 q 272 339 319 390 q 197 258 225 288 q 110 116 119 173 q 107 74 107 105 q 126 9 107 43 q 171 -40 144 -23 q 223 -67 197 -56 q 267 -81 249 -77 q 286 -87 286 -86 q 255 -109 286 -97 q 137 -130 199 -130 q 17 -86 75 -130 q -62 76 -62 -25 q -30 200 -62 138 q 236 497 26 308 q 185 606 185 548 q 228 705 185 665 q 332 745 272 745 q 426 702 386 745 q 453 629 453 673 q 424 529 453 584 q 625 425 572 462 m 324 581 q 357 632 357 616 q 326 669 357 666 q 292 630 292 669 q 324 581 292 607 "},"Þ":{"x_min":-56.953125,"x_max":829.234375,"ha":833,"o":"m 829 523 q 782 368 829 434 q 669 270 734 302 q 409 209 547 209 l 380 209 q 498 -126 498 41 q 440 -309 498 -238 q 273 -380 381 -380 q 140 -327 195 -380 q 86 -188 86 -273 l 93 -119 l 134 209 l 134 215 q 144 315 136 261 q 1 384 59 330 q -56 506 -56 438 q 11 679 -56 605 q 200 786 79 754 q 230 1045 225 1009 q 308 1057 259 1057 q 419 993 419 1057 l 395 807 q 724 718 619 802 q 829 523 829 634 m 384 312 q 561 356 490 312 q 632 500 632 400 q 565 624 632 575 q 379 679 498 673 l 329 275 q 366 227 344 258 l 377 312 q 384 312 380 312 m 68 508 q 92 451 68 475 q 156 418 116 427 l 184 651 q 68 508 68 604 m 277 -155 q 276 -187 276 -163 q 290 -231 276 -211 q 329 -252 305 -252 q 376 -224 352 -252 q 400 -129 400 -195 q 309 116 400 -11 l 277 -155 "},"j":{"x_min":-90.28125,"x_max":458.375,"ha":424,"o":"m 269 1023 q 347 1055 301 1055 q 425 1023 393 1055 q 458 944 458 990 q 425 866 458 898 q 347 834 393 834 q 269 866 301 834 q 237 944 237 898 q 269 1023 237 990 m 76 -425 q -39 -384 11 -425 q -90 -243 -90 -343 q 151 113 -90 -43 q 209 615 161 197 q 340 666 251 666 q 408 657 390 666 l 300 -183 q 232 -364 286 -304 q 76 -425 179 -425 m -1 -229 q 13 -286 -1 -266 q 52 -306 29 -306 q 109 -215 97 -306 l 138 6 q -1 -229 -1 -104 "},"1":{"x_min":16.671875,"x_max":676.4375,"ha":707,"o":"m 659 0 l 16 0 l 36 150 l 258 150 l 344 783 l 88 768 l 104 893 q 408 1057 359 958 l 577 1057 l 459 150 l 676 150 l 659 0 "},"›":{"x_min":27.78125,"x_max":394.46875,"ha":431,"o":"m 27 0 l 209 331 l 48 672 l 140 672 l 394 331 l 120 0 l 27 0 "},"ı":{"x_min":41.671875,"x_max":479.203125,"ha":319,"o":"m 93 615 q 145 653 106 640 q 222 666 184 666 q 290 657 261 666 q 236 234 236 238 q 229 188 229 206 q 230 155 229 169 q 282 119 237 119 q 366 178 327 119 q 423 312 404 237 q 454 279 433 306 q 479 237 475 251 q 386 58 451 126 q 225 -9 318 -9 q 86 36 131 -9 q 41 154 41 81 q 43 186 41 169 l 93 615 "},"ä":{"x_min":41.671875,"x_max":907.015625,"ha":761,"o":"m 395 838 q 366 768 395 797 q 295 738 337 738 q 225 768 254 738 q 197 838 197 797 q 225 910 197 880 q 295 940 254 940 q 366 910 337 940 q 395 838 395 880 m 730 838 q 702 768 730 797 q 631 738 673 738 q 559 768 588 738 q 529 838 529 797 q 559 910 529 880 q 630 940 588 940 q 701 910 672 940 q 730 838 730 880 m 663 -6 q 494 81 536 -6 q 309 -8 422 -8 q 118 68 195 -8 q 41 269 41 144 q 148 559 41 451 q 419 668 255 668 q 427 668 423 668 q 555 644 497 668 q 646 668 593 668 q 723 654 700 668 q 697 452 711 551 q 677 311 683 352 q 665 175 665 216 q 709 119 665 119 q 783 165 744 119 q 851 312 822 212 q 907 231 891 276 q 798 46 866 100 q 663 -6 730 -6 m 440 559 q 299 492 351 559 q 237 291 247 425 q 236 268 236 279 q 268 159 236 200 q 352 119 301 119 q 484 243 440 119 l 518 543 q 440 559 477 559 "},"<":{"x_min":38.890625,"x_max":926.46875,"ha":954,"o":"m 859 218 l 843 84 l 38 508 l 926 822 l 908 684 l 329 486 l 859 218 "},"£":{"x_min":23.609375,"x_max":818.125,"ha":846,"o":"m 566 123 q 605 118 581 118 q 651 128 629 118 q 691 171 673 138 q 718 229 709 204 q 748 318 727 254 q 818 236 794 275 q 597 -8 772 -8 q 383 90 502 -8 q 183 -8 318 -8 q 72 31 122 -8 q 23 147 23 72 q 75 271 23 222 q 206 320 127 320 q 254 316 230 320 q 277 504 268 416 l 113 504 l 130 615 l 291 615 l 318 825 q 593 1057 347 1057 q 745 999 688 1057 q 801 847 801 941 q 797 788 801 818 l 693 788 q 695 829 695 816 q 675 905 695 877 q 602 936 650 936 q 531 899 555 936 q 501 795 508 862 l 479 615 l 732 615 l 713 504 l 465 504 l 433 238 l 431 223 q 566 123 531 136 m 173 115 q 236 198 222 115 q 186 208 206 208 q 149 193 165 208 q 133 156 133 177 q 145 125 133 134 q 173 115 158 115 "},"¹":{"x_min":2.78125,"x_max":340.3125,"ha":371,"o":"m 340 506 q 331 430 331 448 l 2 430 l 12 506 l 120 506 l 156 833 l 40 822 l 50 887 q 191 972 163 916 l 280 972 l 227 506 l 340 506 "},"t":{"x_min":0,"x_max":526.4375,"ha":478,"o":"m 359 966 q 322 668 359 958 l 526 668 l 526 561 l 308 561 l 304 526 q 466 229 466 390 q 402 47 466 102 q 247 -8 337 -8 q 115 39 156 -8 q 73 155 73 87 q 76 188 73 170 l 119 558 l 113 561 l 1 561 q 0 606 0 575 q 12 668 0 637 l 131 668 l 176 1045 q 254 1057 205 1057 q 359 966 359 1057 m 373 230 q 290 419 373 326 q 265 180 265 212 q 305 118 265 118 q 354 145 334 118 q 373 230 373 172 "},"¬":{"x_min":47.21875,"x_max":813.953125,"ha":833,"o":"m 654 227 l 684 479 l 47 479 l 63 598 l 813 598 l 769 227 l 654 227 "},"ù":{"x_min":41.671875,"x_max":850.0625,"ha":704,"o":"m 366 1030 l 543 770 q 490 719 506 729 l 240 904 q 301 977 263 938 q 366 1030 338 1016 m 665 654 q 608 175 608 204 q 648 119 608 119 q 727 168 684 119 q 794 316 769 218 q 850 238 840 266 q 748 48 818 104 q 605 -6 679 -6 q 443 86 484 -6 q 250 -6 370 -6 q 95 43 150 -6 q 41 173 41 93 q 48 241 41 193 q 97 652 80 500 q 176 668 140 668 q 230 665 212 668 q 265 644 248 662 q 281 593 281 626 l 236 238 q 233 208 233 222 q 308 126 233 126 q 423 194 377 126 q 426 243 423 209 l 472 612 q 513 652 481 636 q 593 668 545 668 q 665 654 641 668 "},"W":{"x_min":0,"x_max":1163.984375,"ha":1149,"o":"m 775 962 l 773 944 q 704 444 720 538 q 676 207 676 288 q 745 126 676 126 q 850 210 804 126 q 919 419 895 294 q 968 870 968 680 q 952 1025 968 959 q 1086 1058 1008 1058 q 1163 966 1163 1058 q 1119 531 1163 823 q 1019 175 1083 288 q 952 81 990 126 q 735 -8 875 -8 q 536 111 595 -8 q 304 -8 459 -8 q 149 49 204 -8 q 94 202 94 106 q 97 240 94 215 l 148 632 q 0 872 0 738 q 58 1007 0 957 q 200 1057 116 1057 q 381 876 381 1057 q 381 869 381 873 q 379 856 380 865 q 377 835 379 847 q 371 800 375 823 q 363 747 368 776 q 352 672 359 719 q 338 570 345 625 q 319 436 330 515 q 300 301 308 356 q 291 220 291 245 q 363 127 291 127 q 487 309 463 127 l 576 1011 q 686 1032 622 1032 q 775 962 775 1032 m 145 945 q 106 926 119 945 q 94 882 94 907 q 163 752 94 819 l 170 808 q 177 900 176 854 q 145 945 177 945 "},"ï":{"x_min":26.390625,"x_max":479.203125,"ha":319,"o":"m 26 888 q 53 953 26 926 q 118 980 80 980 q 181 953 155 980 q 208 888 208 926 q 181 824 208 851 q 118 797 155 797 q 53 824 80 797 q 26 888 26 851 m 283 888 q 309 953 283 926 q 374 980 336 980 q 438 953 412 980 q 465 888 465 926 q 438 824 465 851 q 374 797 412 797 q 309 824 336 797 q 283 888 283 851 m 93 615 q 145 653 106 640 q 222 666 184 666 q 290 657 261 666 q 236 234 236 238 q 229 188 229 206 q 230 155 229 169 q 282 119 237 119 q 366 178 327 119 q 423 312 404 237 q 454 279 433 306 q 479 237 475 251 q 386 58 451 126 q 225 -9 318 -9 q 86 36 131 -9 q 41 154 41 81 q 43 186 41 169 l 93 615 "},">":{"x_min":38.890625,"x_max":926.46875,"ha":954,"o":"m 56 263 l 636 462 l 105 730 l 122 863 l 926 440 l 38 126 l 56 263 "},"v":{"x_min":50,"x_max":665.328125,"ha":631,"o":"m 568 248 q 443 64 525 136 q 258 -6 362 -6 q 102 61 154 -6 q 50 219 50 130 q 51 255 50 237 l 98 651 q 193 668 143 668 q 284 600 284 668 q 261 414 284 597 q 238 202 238 231 q 315 123 238 123 q 425 197 380 123 q 506 498 502 330 l 494 498 q 405 525 436 498 q 370 598 370 555 q 397 668 370 641 q 473 695 429 695 q 605 586 579 695 q 665 597 647 591 l 665 518 l 613 509 l 613 486 q 568 248 612 361 m 450 598 q 490 575 450 575 q 498 575 494 575 q 469 612 488 612 q 450 598 450 612 "},"û":{"x_min":41.671875,"x_max":850.0625,"ha":704,"o":"m 408 979 l 650 811 q 604 730 620 757 l 408 832 l 212 730 q 166 811 195 757 l 408 979 m 665 654 q 608 175 608 204 q 648 119 608 119 q 727 168 684 119 q 794 316 769 218 q 850 238 840 266 q 748 48 818 104 q 605 -6 679 -6 q 443 86 484 -6 q 250 -6 370 -6 q 95 43 150 -6 q 41 173 41 93 q 48 241 41 193 q 97 652 80 500 q 176 668 140 668 q 230 665 212 668 q 265 644 248 662 q 281 593 281 626 l 236 238 q 233 208 233 222 q 308 126 233 126 q 423 194 377 126 q 426 243 423 209 l 472 612 q 513 652 481 636 q 593 668 545 668 q 665 654 641 668 "},"Ò":{"x_min":111.125,"x_max":1284.828125,"ha":1038,"o":"m 613 1412 l 790 1152 q 737 1101 754 1111 l 487 1286 q 548 1359 511 1319 q 613 1412 586 1398 m 1284 558 q 1179 496 1252 523 q 1061 469 1105 469 q 997 472 1018 469 q 820 129 962 266 q 489 -8 677 -8 q 206 108 301 -8 q 111 412 111 225 q 148 650 111 534 q 252 857 186 766 q 418 1002 318 947 q 627 1057 518 1057 q 806 1007 736 1057 q 876 870 876 958 q 829 752 876 804 q 701 700 783 700 q 625 721 658 700 q 591 790 591 743 q 602 829 591 812 q 625 850 613 845 l 637 855 q 682 800 637 800 q 718 814 702 800 q 734 847 733 829 q 733 875 736 865 q 722 900 730 886 q 640 934 702 934 q 484 857 558 934 q 367 657 411 779 q 323 406 323 534 q 358 216 323 300 q 415 146 377 172 q 505 120 452 120 q 661 194 593 120 q 763 372 730 268 q 795 583 795 476 l 795 600 q 791 629 791 615 q 838 730 791 695 q 915 752 869 752 q 955 748 927 752 q 994 736 983 744 q 949 716 965 734 q 933 668 933 698 q 961 611 933 637 q 1082 573 1000 573 q 1254 641 1165 573 l 1284 558 "},"&":{"x_min":55.5625,"x_max":887.578125,"ha":913,"o":"m 625 -18 q 608 73 625 15 q 347 -12 484 -12 q 133 64 211 -12 q 55 247 55 141 q 129 447 55 361 q 311 586 184 511 q 245 812 245 712 q 320 986 245 912 q 529 1061 395 1061 q 681 1012 622 1061 q 740 890 740 963 q 540 587 740 750 q 615 477 554 565 q 707 340 676 390 q 734 444 734 397 q 670 543 734 540 q 677 575 670 552 q 694 611 684 597 q 725 636 704 625 q 772 647 745 647 q 854 609 822 647 q 887 512 887 570 q 883 469 887 491 q 768 229 859 354 q 820 28 820 112 q 794 -108 820 -55 q 633 -227 748 -197 q 555 -237 594 -237 l 538 -237 l 538 -152 q 625 -18 625 -109 m 529 938 q 460 913 487 938 q 430 838 433 887 q 481 682 430 777 q 575 765 538 726 q 616 852 616 812 q 595 913 616 891 q 529 938 572 938 m 251 277 l 250 261 q 288 157 250 202 q 407 112 327 112 q 565 172 487 112 q 470 330 525 248 q 398 440 416 412 l 383 465 q 283 366 309 408 q 251 277 256 325 "},"˝":{"x_min":126.40625,"x_max":668.109375,"ha":833,"o":"m 288 1058 l 429 1058 l 234 836 l 126 836 l 288 1058 m 527 1058 l 668 1058 l 445 836 l 323 836 l 527 1058 "},"Ð":{"x_min":41.671875,"x_max":1036.1875,"ha":1033,"o":"m 62 741 q 191 977 62 893 q 488 1062 320 1062 q 866 938 704 1062 q 991 772 947 876 q 1036 544 1036 669 q 895 144 1036 298 q 530 -12 750 -12 q 427 0 481 -12 q 341 33 373 12 q 210 -5 290 -5 q 86 38 130 -5 q 41 152 41 83 q 290 431 41 316 l 304 543 l 59 543 l 72 662 l 83 662 q 62 741 62 700 m 418 134 q 487 123 461 123 q 734 244 647 123 q 825 550 825 370 q 659 879 825 779 q 458 934 568 934 q 236 858 318 934 q 188 754 188 815 q 206 697 188 725 q 266 662 223 669 l 319 662 q 341 830 336 801 q 473 866 398 866 q 540 859 508 866 l 511 662 l 602 662 l 590 543 l 493 543 l 452 266 q 418 134 440 187 m 144 170 q 191 120 144 120 q 232 146 211 120 q 262 227 254 172 l 275 313 q 144 170 144 240 "},"I":{"x_min":56.953125,"x_max":773.671875,"ha":671,"o":"m 772 900 q 728 909 750 909 q 686 883 707 909 q 659 807 666 857 l 587 291 q 491 70 568 151 q 298 -9 413 -9 q 120 54 183 -9 q 56 209 56 119 q 118 361 56 298 q 275 423 180 423 q 366 415 333 423 l 359 330 q 286 336 336 336 q 199 302 237 336 q 161 219 161 269 q 188 142 161 169 q 255 115 216 115 q 391 287 372 115 q 445 752 429 632 q 298 723 362 723 q 143 770 197 723 q 90 894 90 818 q 145 1014 90 970 q 283 1058 200 1058 q 431 1026 334 1058 q 580 994 527 994 q 738 1043 675 994 q 773 927 773 994 q 772 900 773 913 m 227 857 q 250 820 227 836 q 320 805 273 805 q 441 847 366 805 q 330 875 387 859 q 262 891 273 891 q 227 857 227 891 "},"G":{"x_min":40.28125,"x_max":1000.078125,"ha":875,"o":"m 459 -381 q 327 -334 381 -381 q 272 -187 272 -286 q 366 -2 272 -88 q 119 127 198 20 q 40 402 40 233 q 102 718 40 570 q 286 961 163 866 q 550 1057 408 1057 q 774 988 693 1057 q 855 800 855 919 q 784 607 855 680 q 617 534 713 534 q 468 577 520 534 q 415 667 415 619 q 453 742 415 715 q 565 769 491 769 q 547 721 547 751 q 565 669 547 691 q 620 647 583 647 q 689 686 657 647 q 722 792 722 725 q 687 897 722 859 q 581 934 652 934 q 410 858 487 934 q 293 663 333 782 q 252 415 252 545 q 301 216 252 302 q 375 145 326 172 q 472 119 425 119 q 550 123 520 119 l 584 426 l 779 426 l 748 200 q 945 372 898 279 l 1000 295 q 733 84 909 156 l 715 -65 q 675 -234 704 -166 q 606 -332 645 -302 q 533 -372 566 -362 q 459 -381 500 -381 m 395 -183 q 411 -226 395 -208 q 446 -244 426 -244 q 477 -237 466 -244 q 501 -201 488 -230 q 520 -119 513 -172 l 534 -5 q 395 -183 395 -91 "},"`":{"x_min":13.890625,"x_max":316.6875,"ha":331,"o":"m 140 1023 l 316 763 q 263 712 280 722 l 13 897 q 75 970 37 930 q 140 1023 112 1009 "},"·":{"x_min":306.96875,"x_max":515.3125,"ha":833,"o":"m 322 525 l 497 525 q 512 523 509 525 q 515 515 515 522 l 515 338 q 512 329 515 330 q 497 327 509 327 l 322 327 q 309 330 312 327 q 306 344 306 333 l 306 508 q 309 522 306 519 q 322 525 311 525 "},"r":{"x_min":76.390625,"x_max":586.15625,"ha":572,"o":"m 455 486 q 399 547 455 547 q 309 475 343 547 q 459 209 459 356 q 400 47 459 102 q 250 -8 340 -8 q 118 47 159 -8 q 76 190 76 104 q 77 229 76 216 l 126 652 q 227 668 176 668 q 312 605 312 668 l 312 602 q 454 668 368 668 q 551 639 516 668 q 586 563 586 611 q 550 486 586 516 q 458 456 515 456 q 452 456 455 456 q 455 486 455 472 m 369 216 q 286 377 369 297 q 261 176 261 177 q 308 118 261 118 q 369 216 369 118 "},"¿":{"x_min":111.125,"x_max":713.953125,"ha":824,"o":"m 516 756 q 597 788 550 788 q 677 756 644 788 q 711 676 711 723 q 677 595 711 629 q 597 561 644 561 q 516 595 550 561 q 483 676 483 629 q 516 756 483 723 m 648 431 q 666 386 661 418 q 672 343 672 354 q 631 224 672 276 q 539 136 590 172 q 438 65 488 101 q 352 -20 388 30 q 315 -133 315 -76 q 345 -227 315 -190 q 438 -265 376 -265 q 540 -219 501 -265 q 580 -107 580 -172 q 554 -5 580 -43 l 688 -5 q 713 -122 713 -65 q 620 -307 709 -233 q 400 -381 530 -381 q 190 -309 270 -381 q 111 -126 111 -236 q 111 -119 111 -123 q 159 48 115 -18 q 281 175 204 115 q 358 229 308 195 q 434 283 408 263 q 485 334 461 302 q 515 397 509 365 l 515 405 q 513 431 515 427 l 648 431 "},"ý":{"x_min":27.78125,"x_max":779.234375,"ha":675,"o":"m 286 763 l 462 1023 q 527 970 490 1009 q 588 897 565 930 l 338 712 q 286 763 322 722 m 284 -412 q 148 -364 205 -412 q 91 -225 91 -316 q 205 -5 91 -112 q 76 47 125 1 q 27 176 27 93 q 37 293 27 215 q 58 461 47 370 q 81 652 69 551 q 161 668 125 668 q 215 665 197 668 q 250 644 233 662 q 266 593 266 626 l 220 238 q 218 208 218 216 q 293 126 218 126 q 404 190 361 126 q 425 374 408 222 q 452 611 441 526 q 504 652 465 637 q 569 668 544 668 q 650 657 613 668 l 584 144 q 779 -79 747 115 q 726 -162 773 -105 q 573 48 698 11 l 551 -125 q 472 -331 536 -250 q 284 -412 408 -412 m 200 -198 q 222 -266 200 -244 q 281 -288 244 -288 q 337 -258 318 -288 q 368 -136 356 -227 l 386 16 q 200 -198 204 -77 "},"x":{"x_min":13.890625,"x_max":733.390625,"ha":708,"o":"m 733 170 q 662 38 711 84 q 547 -8 613 -8 q 446 18 481 -8 q 380 106 411 44 l 336 193 l 268 94 q 129 -1 201 -1 q 43 29 73 -1 q 13 105 13 61 q 72 222 13 180 q 198 265 131 265 q 238 261 218 265 l 272 311 q 162 506 172 491 q 131 530 145 530 q 106 520 116 530 q 97 491 97 509 q 102 451 97 473 l 68 441 q 47 489 55 458 q 38 538 38 520 q 81 645 38 607 q 194 683 125 683 q 326 591 279 683 l 383 481 l 459 601 q 520 670 493 652 q 592 687 548 687 q 668 656 636 687 q 700 581 700 625 q 647 468 700 508 q 530 427 594 427 q 498 430 518 427 l 448 356 q 552 155 543 173 q 605 118 573 118 q 673 194 648 118 l 679 211 q 686 238 680 215 l 733 170 m 613 580 q 588 566 600 580 q 533 483 576 551 q 604 502 570 483 q 638 550 637 520 q 613 580 640 580 m 193 209 q 118 190 154 209 q 81 141 81 170 q 106 112 81 112 q 204 209 136 112 l 193 209 "},"è":{"x_min":36.109375,"x_max":807.015625,"ha":647,"o":"m 368 1023 l 544 763 q 491 712 508 722 l 241 897 q 302 970 265 930 q 368 1023 340 1009 m 304 311 q 432 380 390 329 q 475 479 475 431 q 449 545 475 527 q 393 562 423 562 q 278 489 327 562 q 229 316 229 416 q 277 165 229 215 q 395 116 325 116 q 595 188 500 116 q 751 377 691 261 q 807 305 782 348 q 644 101 761 201 q 506 22 586 52 q 341 -8 426 -8 q 122 76 202 -8 q 36 311 36 168 q 143 561 36 454 q 401 668 251 668 q 575 621 508 668 q 643 495 641 575 q 557 322 643 388 q 323 229 472 255 l 304 311 "},"º":{"x_min":27.78125,"x_max":377.8125,"ha":392,"o":"m 377 827 q 323 680 377 736 q 193 625 269 625 q 72 668 118 625 q 27 776 27 712 q 82 918 27 865 q 213 971 137 970 q 333 929 288 972 q 377 827 377 887 m 210 915 q 153 876 176 915 q 129 787 130 837 q 145 709 127 737 q 196 682 162 682 q 254 720 230 682 q 277 807 277 759 q 261 884 277 855 q 210 915 244 915 "},"Ø":{"x_min":111.125,"x_max":1284.828125,"ha":1038,"o":"m 1284 558 q 1179 496 1252 523 q 1061 469 1105 469 q 997 472 1018 469 q 820 129 962 266 q 480 -8 677 -8 l 454 -8 l 431 -83 l 316 -83 l 345 12 q 170 159 230 52 q 111 400 111 265 q 148 650 111 534 q 252 857 186 766 q 418 1002 318 947 q 634 1057 518 1057 l 658 1055 l 675 1112 l 790 1112 l 765 1030 q 876 870 876 980 q 829 752 876 804 q 701 700 783 700 q 668 704 684 700 l 493 120 l 505 120 q 661 194 593 120 q 763 372 730 268 q 795 583 795 476 l 795 600 q 791 629 791 615 q 838 730 791 695 q 915 752 869 752 q 955 748 927 752 q 994 736 983 744 q 949 716 965 734 q 933 668 933 698 q 961 611 933 637 q 1082 573 1000 573 q 1254 641 1165 573 l 1284 558 m 323 406 q 391 168 323 240 l 620 933 q 473 845 543 923 q 363 648 404 766 q 323 406 323 530 m 725 895 l 697 802 q 736 857 732 812 q 725 895 736 876 "},"∞":{"x_min":-125.015625,"x_max":933.40625,"ha":833,"o":"m 127 158 q -57 245 9 158 q -125 459 -125 331 q -58 682 -125 587 q 144 776 8 776 q 266 732 198 776 q 422 593 323 700 q 536 731 476 686 q 680 776 595 776 q 866 689 798 776 q 933 475 933 602 q 869 252 933 347 q 682 158 805 158 q 677 158 679 158 q 559 193 619 158 l 559 191 q 386 343 500 222 q 272 203 331 248 q 127 158 212 158 m 687 361 q 772 399 741 362 q 802 489 802 436 q 771 583 802 543 q 687 623 740 623 q 683 623 684 623 q 506 495 577 618 q 606 391 570 420 q 687 361 643 362 m 120 573 q 36 535 66 572 q 5 445 5 498 q 36 351 5 391 q 120 311 68 311 q 125 311 123 311 q 301 438 230 316 q 200 543 236 515 q 120 573 165 572 "},"μ":{"x_min":69.453125,"x_max":941.734375,"ha":925,"o":"m 757 654 q 700 175 700 204 q 740 119 700 119 q 818 168 776 119 q 886 316 861 218 q 941 238 932 266 q 840 48 909 104 q 697 -6 770 -6 q 534 86 576 -6 q 341 -6 462 -6 q 295 -4 323 -6 l 251 -380 l 69 -380 l 134 175 q 136 209 134 197 l 177 556 l 188 658 q 254 669 218 669 q 302 666 291 669 q 354 648 336 663 q 376 605 376 633 l 376 597 l 369 550 q 325 208 325 229 q 400 126 325 126 q 515 194 469 126 q 518 243 515 209 l 563 612 q 605 652 573 636 q 685 668 637 668 q 757 654 733 668 "},"÷":{"x_min":18.0625,"x_max":686.171875,"ha":636,"o":"m 297 834 q 377 868 330 868 q 458 834 425 868 q 491 754 491 801 q 458 674 491 707 q 377 641 425 641 q 297 674 330 641 q 265 754 265 707 q 297 834 265 801 m 30 579 l 686 579 l 673 459 l 18 459 l 30 579 m 240 348 q 320 381 273 381 q 401 348 368 381 q 434 268 434 315 q 401 188 434 220 q 320 155 368 155 q 240 188 273 155 q 208 268 208 220 q 240 348 208 315 "},"h":{"x_min":20.828125,"x_max":850.0625,"ha":690,"o":"m 425 158 l 458 465 q 438 527 458 502 q 376 552 419 552 q 303 518 333 552 q 259 429 273 484 q 230 197 250 350 q 205 0 211 45 l 20 0 q 141 1045 120 851 q 220 1057 170 1057 q 329 993 329 1057 l 329 984 q 279 601 305 766 q 445 668 352 668 q 593 620 538 668 q 647 501 647 573 q 638 429 647 481 q 607 184 607 220 q 650 119 607 119 q 727 167 686 119 q 793 315 768 215 q 850 236 840 265 q 594 -5 777 -5 q 466 47 508 -5 q 425 158 425 100 "},".":{"x_min":138.90625,"x_max":365.3125,"ha":504,"o":"m 171 166 q 251 200 204 200 q 331 166 298 200 q 365 86 365 133 q 331 6 365 38 q 251 -26 298 -26 q 171 6 204 -26 q 138 86 138 38 q 171 166 138 133 "},";":{"x_min":90.28125,"x_max":411.140625,"ha":501,"o":"m 217 638 q 297 672 250 672 q 377 638 344 672 q 411 558 411 605 q 377 478 411 511 q 297 445 344 445 q 217 478 250 445 q 184 558 184 511 q 217 638 184 605 m 112 103 q 145 180 112 147 q 226 213 177 213 q 310 183 275 213 q 345 92 345 152 q 284 -47 345 31 q 165 -175 223 -127 q 154 -176 162 -176 q 120 -168 145 -176 q 90 -154 95 -159 q 204 -9 155 -79 q 138 28 165 -2 q 112 103 112 59 "},"f":{"x_min":22.21875,"x_max":713.953125,"ha":560,"o":"m 420 -1 q 497 -224 497 -136 q 443 -367 497 -312 q 304 -422 390 -422 q 163 -374 218 -422 q 108 -241 108 -326 q 113 -175 108 -225 l 156 200 q 22 375 75 309 q 101 440 69 440 q 129 425 116 440 q 175 368 143 409 l 227 834 q 272 983 238 926 q 436 1057 316 1057 q 565 1010 520 1057 q 609 882 609 963 q 538 665 609 772 q 372 477 466 558 l 337 143 q 404 116 361 116 q 547 189 490 116 q 648 395 605 262 q 689 367 668 384 q 713 343 711 350 q 602 104 682 188 q 420 -1 523 19 m 486 936 q 472 937 479 937 q 422 888 434 937 q 391 665 409 840 l 386 612 q 482 742 445 673 q 519 867 519 811 q 486 936 519 923 m 300 -211 q 298 -240 298 -218 q 312 -279 298 -263 q 349 -294 326 -294 q 390 -275 372 -294 q 408 -218 408 -256 q 320 -16 408 -144 l 300 -211 "},"“":{"x_min":42.34375,"x_max":558.375,"ha":600,"o":"m 223 1122 q 234 1123 226 1123 q 268 1115 243 1123 q 300 1101 293 1107 q 186 958 247 1041 q 251 918 225 948 q 277 843 277 887 q 245 766 277 800 q 169 733 212 733 q 165 733 166 733 q 77 763 112 733 q 42 855 41 794 q 104 995 43 916 q 223 1122 166 1075 m 484 1122 q 495 1123 487 1123 q 529 1114 502 1123 q 558 1101 555 1105 q 447 958 488 1020 q 511 918 486 948 q 537 843 537 888 q 505 766 537 798 q 429 733 473 733 q 425 733 426 733 q 338 763 373 733 q 302 845 302 794 q 341 958 302 895 q 484 1122 401 1052 "},"A":{"x_min":47.21875,"x_max":1161.203125,"ha":992,"o":"m 844 -2 q 727 47 766 -2 q 673 237 687 98 q 657 425 665 309 q 461 363 559 395 l 413 233 q 394 179 400 195 q 374 131 388 163 q 349 85 359 100 q 320 48 338 70 q 281 16 301 26 q 175 -8 231 -8 q 82 32 118 -8 q 47 133 47 73 q 50 168 47 150 q 323 411 68 301 q 563 1033 395 595 q 676 1058 608 1058 q 705 1058 691 1058 q 739 1058 719 1058 q 790 1050 759 1058 q 854 240 791 984 q 869 159 859 177 q 902 140 879 140 q 1006 193 941 140 q 1122 325 1070 245 l 1161 230 l 1127 186 q 844 -2 982 -2 m 623 816 l 502 479 q 647 527 600 512 l 623 816 m 275 290 q 145 162 145 225 q 179 118 145 118 q 219 154 204 118 q 275 290 237 193 "},"6":{"x_min":41.671875,"x_max":809.78125,"ha":865,"o":"m 502 687 q 729 588 650 687 q 809 363 809 490 q 699 98 809 197 q 445 0 588 0 q 272 34 347 0 q 154 122 198 68 q 41 458 41 256 q 44 520 41 488 q 197 916 63 775 q 548 1057 331 1057 q 795 977 700 1057 l 732 863 q 548 926 652 926 q 385 861 450 926 q 291 702 320 795 q 255 448 255 581 q 279 281 255 358 q 441 130 326 130 q 543 189 497 130 q 593 345 590 248 q 593 366 593 355 q 406 565 593 565 q 339 554 383 565 q 288 534 295 543 l 298 640 q 502 687 383 687 "},"‘":{"x_min":41.671875,"x_max":297.25,"ha":339,"o":"m 222 1097 q 233 1098 225 1098 q 266 1090 241 1098 q 297 1076 291 1082 q 183 932 231 1001 q 248 893 222 925 q 275 818 275 862 q 242 741 275 775 q 161 708 209 708 q 77 738 112 708 q 41 829 41 769 q 102 970 41 890 q 222 1097 163 1050 "},"π":{"x_min":69.453125,"x_max":1204.265625,"ha":1272,"o":"m 281 1057 l 1195 1057 q 1204 1002 1204 1032 q 1184 941 1204 973 q 1098 891 1152 891 l 962 891 l 845 0 l 657 0 l 761 891 l 625 891 l 538 237 q 308 -8 505 -8 q 198 34 237 -8 q 159 143 159 76 q 369 411 159 291 l 411 769 q 256 720 341 720 q 120 765 170 719 q 69 880 69 811 q 122 1003 69 950 q 281 1057 175 1057 m 280 891 q 190 848 190 891 q 275 805 190 805 q 420 891 359 805 l 280 891 m 256 163 q 297 119 256 119 q 326 132 319 119 q 336 154 333 145 q 343 179 340 163 q 347 206 345 194 q 350 237 348 218 q 352 268 351 256 l 355 287 q 256 163 256 219 "},"O":{"x_min":111.125,"x_max":1284.828125,"ha":1038,"o":"m 1284 558 q 1179 496 1252 523 q 1061 469 1105 469 q 997 472 1018 469 q 820 129 962 266 q 489 -8 677 -8 q 206 108 301 -8 q 111 412 111 225 q 148 650 111 534 q 252 857 186 766 q 418 1002 318 947 q 627 1057 518 1057 q 806 1007 736 1057 q 876 870 876 958 q 829 752 876 804 q 701 700 783 700 q 625 721 658 700 q 591 790 591 743 q 602 829 591 812 q 625 850 613 845 l 637 855 q 682 800 637 800 q 718 814 702 800 q 734 847 733 829 q 733 875 736 865 q 722 900 730 886 q 640 934 702 934 q 484 857 558 934 q 367 657 411 779 q 323 406 323 534 q 358 216 323 300 q 415 146 377 172 q 505 120 452 120 q 661 194 593 120 q 763 372 730 268 q 795 583 795 476 l 795 600 q 791 629 791 615 q 838 730 791 695 q 915 752 869 752 q 955 748 927 752 q 994 736 983 744 q 949 716 965 734 q 933 668 933 698 q 961 611 933 637 q 1082 573 1000 573 q 1254 641 1165 573 l 1284 558 "},"n":{"x_min":34.71875,"x_max":866.734375,"ha":721,"o":"m 441 155 l 475 465 q 455 527 475 502 q 391 552 436 552 q 314 513 345 552 q 275 413 283 473 q 222 0 225 33 l 34 0 l 111 654 q 200 669 169 669 q 297 601 293 669 q 460 668 365 668 q 609 620 555 668 q 663 501 663 573 q 655 427 663 481 q 623 181 623 216 q 666 118 623 118 q 809 315 761 118 q 866 236 857 265 q 611 -8 793 -8 q 483 44 525 -8 q 441 155 441 97 "},"3":{"x_min":48.609375,"x_max":851.453125,"ha":914,"o":"m 150 787 q 180 911 150 857 q 262 995 211 965 q 477 1057 365 1057 q 724 986 627 1057 q 819 786 820 916 q 645 543 815 613 q 794 462 737 525 q 851 311 851 400 q 732 77 851 155 q 456 0 612 0 q 48 191 188 0 l 183 316 q 294 191 215 245 q 454 136 376 136 q 581 184 533 136 q 630 302 630 231 q 607 380 630 347 q 370 461 547 461 q 354 461 362 461 l 269 461 l 280 587 q 450 594 381 587 q 569 644 519 601 q 623 776 623 693 q 582 879 623 834 q 463 926 541 925 q 367 886 398 923 q 336 809 336 850 q 344 744 336 769 l 152 744 q 150 787 150 772 "},"9":{"x_min":62.5,"x_max":869.515625,"ha":932,"o":"m 434 379 q 191 483 272 379 q 122 698 122 576 q 125 738 122 711 q 240 977 143 891 q 490 1062 338 1062 q 639 1036 573 1062 q 747 966 705 1009 q 818 865 790 923 q 869 620 869 757 q 865 541 869 579 q 716 143 840 286 q 368 -1 591 1 q 226 17 290 -1 q 131 55 162 36 q 62 108 100 75 l 163 237 q 255 159 205 184 q 380 134 305 134 q 654 575 619 134 q 658 659 658 650 q 502 932 658 932 q 384 875 429 932 q 333 700 333 807 q 377 568 333 629 q 516 506 420 506 q 581 518 540 506 q 629 537 622 529 l 618 436 q 434 379 541 379 "},"l":{"x_min":50,"x_max":584.765625,"ha":425,"o":"m 232 -9 q 98 38 147 -9 q 50 169 50 86 q 125 829 50 191 q 229 1036 144 993 q 322 1057 268 1057 q 505 887 505 1057 q 504 858 505 873 q 270 479 490 672 q 255 347 263 411 q 238 188 238 204 q 301 116 238 116 q 428 195 369 116 q 519 395 487 273 q 554 372 531 391 q 584 340 576 354 q 484 119 562 225 q 386 30 445 65 q 232 -9 318 -9 m 286 618 q 413 869 413 758 q 363 936 413 936 q 321 894 331 933 q 302 768 311 855 q 290 659 293 680 l 286 618 "},"¤":{"x_min":125.015625,"x_max":858.40625,"ha":942,"o":"m 704 634 q 751 483 751 568 q 705 330 751 398 l 857 177 l 783 102 l 630 259 q 493 222 569 222 q 354 258 416 222 l 200 105 l 125 179 l 279 329 q 234 479 234 394 q 283 636 234 565 l 126 788 l 201 862 l 361 705 q 493 738 419 738 q 627 704 566 738 l 784 865 l 858 790 l 704 634 m 492 637 q 381 591 426 637 q 336 479 336 545 q 381 368 336 413 q 492 323 426 323 q 604 368 558 323 q 650 479 650 413 q 604 591 650 545 q 492 637 558 637 "},"4":{"x_min":16.671875,"x_max":809.78125,"ha":845,"o":"m 152 1004 q 305 1066 218 1066 q 397 1035 365 1066 q 430 954 430 1004 q 403 847 430 904 q 363 763 376 791 q 324 691 350 736 q 286 626 298 647 q 215 505 270 597 l 447 505 l 527 990 q 604 1001 556 1001 q 679 983 651 1001 q 708 915 708 965 q 706 882 708 897 q 634 491 704 868 q 809 275 809 450 q 807 229 809 252 q 729 53 793 106 q 579 0 666 0 q 444 47 493 0 q 395 172 395 95 q 398 212 395 198 l 420 345 l 73 341 l 36 422 q 16 476 16 468 q 18 486 16 484 q 229 908 215 743 q 229 916 229 912 q 152 1004 229 977 m 698 255 q 609 350 698 341 q 586 200 586 219 q 625 141 586 141 q 672 163 652 141 q 698 255 698 198 "},"p":{"x_min":0,"x_max":713.953125,"ha":735,"o":"m 198 669 q 304 623 288 669 q 469 669 369 669 q 641 587 569 669 q 713 395 713 505 q 712 363 713 380 q 590 86 697 181 q 311 -8 483 -8 q 226 1 272 -8 l 181 -380 l 0 -380 q 119 658 88 384 q 198 669 148 669 m 518 386 q 490 494 518 447 q 404 541 462 541 q 283 438 325 541 q 251 200 255 233 q 277 137 250 158 q 345 116 305 116 q 462 180 416 116 q 518 386 518 259 "},"‡":{"x_min":41.671875,"x_max":686.171875,"ha":833,"o":"m 655 368 l 640 248 l 409 269 l 363 -137 l 248 -137 l 294 272 l 41 248 l 58 368 l 302 344 l 329 572 l 72 548 l 88 668 l 337 644 l 383 1057 l 498 1057 l 452 647 l 686 668 l 670 548 l 443 569 l 418 345 l 655 368 "},"à":{"x_min":41.671875,"x_max":907.015625,"ha":761,"o":"m 425 1023 l 601 763 q 548 712 565 722 l 298 897 q 359 970 322 930 q 425 1023 397 1009 m 663 -6 q 494 81 536 -6 q 309 -8 422 -8 q 118 68 195 -8 q 41 269 41 144 q 148 559 41 451 q 419 668 255 668 q 427 668 423 668 q 555 644 497 668 q 646 668 593 668 q 723 654 700 668 q 697 452 711 551 q 677 311 683 352 q 665 175 665 216 q 709 119 665 119 q 783 165 744 119 q 851 312 822 212 q 907 231 891 276 q 798 46 866 100 q 663 -6 730 -6 m 440 559 q 299 492 351 559 q 237 291 247 425 q 236 268 236 279 q 268 159 236 200 q 352 119 301 119 q 484 243 440 119 l 518 543 q 440 559 477 559 "},"Ü":{"x_min":0,"x_max":1030.640625,"ha":836,"o":"m 206 1227 q 235 1299 206 1269 q 305 1329 263 1329 q 376 1299 347 1329 q 405 1227 405 1269 q 376 1157 405 1186 q 305 1127 347 1127 q 235 1157 263 1127 q 206 1227 206 1186 m 568 1299 q 640 1329 598 1329 q 711 1299 682 1329 q 740 1227 740 1269 q 711 1157 740 1186 q 641 1127 683 1127 q 568 1157 598 1127 q 538 1227 538 1186 q 568 1299 538 1269 m 612 1025 q 666 1046 620 1036 q 751 1057 711 1057 q 818 1045 791 1057 q 716 206 716 234 q 734 157 716 179 q 784 136 751 136 q 948 387 876 136 q 950 394 948 390 q 951 400 951 398 q 1030 351 1012 361 q 916 84 984 176 q 741 -8 848 -8 q 597 93 634 -8 l 593 93 q 497 15 550 38 q 365 -8 444 -8 q 164 59 234 -8 q 94 254 94 127 q 98 312 94 280 l 137 637 q 0 866 0 734 q 52 1005 0 954 q 187 1057 105 1057 q 358 876 358 1057 q 354 811 358 847 l 283 268 q 281 238 281 258 q 306 151 281 184 q 383 118 331 118 q 529 309 506 118 l 612 1025 m 136 929 q 88 871 88 929 q 152 758 88 813 l 156 794 q 166 884 165 866 q 136 929 166 929 "},"ó":{"x_min":27.78125,"x_max":708.390625,"ha":722,"o":"m 297 763 l 473 1023 q 538 970 501 1009 q 600 897 576 930 l 350 712 q 297 763 333 722 m 409 668 q 622 586 537 668 q 708 386 708 504 q 603 99 708 206 q 350 -8 498 -8 q 114 76 201 -8 q 27 286 27 161 q 134 563 27 461 q 409 668 243 668 m 382 555 q 272 480 316 555 q 223 291 227 405 q 256 158 223 211 q 355 105 288 105 q 467 179 422 105 q 512 347 512 252 q 480 497 512 441 q 382 555 448 555 "},"√":{"x_min":-125.015625,"x_max":936.1875,"ha":833,"o":"m -98 219 l -125 270 l 84 494 l 277 80 l 854 1061 l 936 1061 l 234 -105 l 40 363 l -98 219 "}}}
